/* XPM */
static char *_51550ddd3ee49f1e3cc2a14da9fb328FRKulmE5xfarS7PY[] = {
/* columns rows colors chars-per-pixel */
"32 32 169 2 ",
"   c None",
".  c #010000",
"X  c #0D0101",
"o  c #0C0B00",
"O  c #1C0500",
"+  c #130B01",
"@  c #1B0A01",
"#  c #140908",
"$  c #1E1403",
"%  c #1B140C",
"&  c #190812",
"*  c #220F00",
"=  c #271C00",
"-  c #2E1B05",
";  c #231D0D",
":  c #2A1606",
">  c #311B02",
",  c #331D0D",
"<  c #261D1B",
"1  c #2F210E",
"2  c #2E2905",
"3  c #342403",
"4  c #3B2707",
"5  c #362903",
"6  c #3C2905",
"7  c #34230B",
"8  c #3D290C",
"9  c #2D2717",
"0  c #332E11",
"q  c #3D2F1D",
"w  c #352B16",
"e  c #1C202B",
"r  c #2F2121",
"t  c #2C2A29",
"y  c #3A2D26",
"u  c #3D3426",
"i  c #353434",
"p  c #383736",
"a  c #3C3C3B",
"s  c #432902",
"d  c #4B2C02",
"f  c #432D0C",
"g  c #442502",
"h  c #522D04",
"j  c #493E08",
"k  c #4A3302",
"l  c #573A00",
"z  c #4A2812",
"x  c #4A371A",
"c  c #603D0B",
"v  c #633E1D",
"b  c #4A2F26",
"n  c #483928",
"m  c #443924",
"M  c #543929",
"N  c #4D3D34",
"B  c #633E21",
"V  c #3E433D",
"C  c #5F4306",
"Z  c #55431B",
"A  c #5C4015",
"S  c #66480F",
"D  c #654201",
"F  c #655B00",
"G  c #644B1C",
"H  c #6B4E1A",
"J  c #6E401C",
"K  c #795717",
"L  c #686503",
"P  c #4E4024",
"I  c #554224",
"U  c #5E4424",
"Y  c #58482B",
"T  c #5F5525",
"R  c #4F433A",
"E  c #564B36",
"W  c #5B5338",
"Q  c #63552A",
"!  c #785E2C",
"~  c #685039",
"^  c #685234",
"/  c #7E5E38",
"(  c #745936",
")  c #6C6728",
"_  c #727022",
"`  c #7B6235",
"'  c #78603C",
"]  c #434343",
"[  c #4F4E41",
"{  c #474848",
"}  c #494949",
"|  c #5B4E45",
" . c #655744",
".. c #7D6643",
"X. c #79694B",
"o. c #786851",
"O. c #7E786A",
"+. c #717170",
"@. c #885F11",
"#. c #805D19",
"$. c #8B6419",
"%. c #94722F",
"&. c #8A6E30",
"*. c #846C3C",
"=. c #80653C",
"-. c #9E7B37",
";. c #897048",
":. c #82755C",
">. c #8C7D5C",
",. c #897954",
"<. c #988E2B",
"1. c #9C883D",
"2. c #AD832D",
"3. c #BEA23F",
"4. c #C28F21",
"5. c #D8AD37",
"6. c #D8AE39",
"7. c #DAB03A",
"8. c #EEC13E",
"9. c #E4E43F",
"0. c #FFFF31",
"q. c #91815F",
"w. c #978453",
"e. c #A48A4E",
"r. c #AE934A",
"t. c #A29949",
"y. c #B09649",
"u. c #B59D4C",
"i. c #B39B50",
"p. c #B7A849",
"a. c #ABA250",
"s. c #908E74",
"d. c #A48A67",
"f. c #AA9265",
"g. c #B69F6B",
"h. c #A99A70",
"j. c #C6A855",
"k. c #D1B85B",
"l. c #CDBA73",
"z. c #D1BE75",
"x. c #D4CA4D",
"c. c #D1C658",
"v. c #D4CB5E",
"b. c #DDD156",
"n. c #E3D544",
"m. c #E8D658",
"M. c #FFF840",
"N. c #D9D963",
"B. c #D9C375",
"V. c #E0C77D",
"C. c #F8F76C",
"Z. c #FFFF77",
"A. c #FFFF7A",
"S. c #FEF478",
"D. c #837E89",
"F. c #858184",
"G. c #BEB082",
"H. c #B7AD96",
"J. c #A09EA6",
"K. c #BBB3A6",
"L. c #D0C79A",
"P. c #E5D699",
"I. c #FFFF84",
"U. c #C7C4BD",
"Y. c #F0DDB8",
"T. c #E9E1AF",
"R. c #F2ECAF",
"E. c #E5E0BB",
"W. c #FFFFD8",
/* pixels */
"                                                                ",
"^                                                         1     ",
"  d                                                     + 7     ",
"  s K                                                 @.8       ",
"    l 4.                                            j.Y $       ",
"    < X K P.                                      %.m %         ",
"        e . >.                                #.G % .           ",
"      :.    . ; K.                        $.H w .   U j.m.p.;.  ",
"      . _ R.  3 . | T.    7 R '         S w +   U u.b.M.0.9.K   ",
"        + L t.!   X x Z     ,.x.g.    x 7 g h *.a.)   - 3 3 4   ",
"          r - * X x n @     d.n.w.  o.y A d > ; $               ",
"            g ` *.c / >.o.b h.I.t., =...f m [ % *               ",
"              W P O &...# T S.A.) & Y Q   u W 7                 ",
"                    C +.  X m.S.2 q.D.Q                         ",
"                  G.0   Y.  <.N.  J J.V c.V.B.B.z.l.z.z.w.      ",
"                  0 k -.E.  F <.  e.L.  v.C.A.A.Z.Z.A.I.1.      ",
"                    s j p.    X   W.$ > q $ = 5 5 5 5 5 4       ",
"                        o K.  .   :.3                           ",
"                        X F.    U.. ` 2.D                       ",
"                      $ ( t     t   - E w                       ",
"                    I z v           @ < E                       ",
"                      E         s.  .     ~ i.y.r.r.r.r.u.1.,.  ",
"                          4  .  9       N k.8.5.7.7.7.6.8.3.H   ",
"                        G , f.O.q .     9 f * - - - - - - - 6   ",
"                      x M B ( H.. u I Z                         ",
"                              `   X.                            ",
"                              O                                 ",
"                                                                ",
"                                                                ",
"                                                                ",
"  a { ] ] ] ]       } p     V a a ]   p   ]     a   a   p {   p ",
"  a i       {   t     }           i   p   p     p     p         "
};
