/* XPM */
static char *_0a6290db71a42c7982d0bd2e00f64acr7JrFJls9aWlajRx[] = {
/* columns rows colors chars-per-pixel */
"64 64 242 2 ",
"   c None",
".  c #010000",
"X  c #0C0100",
"o  c #0C0C01",
"O  c #070309",
"+  c #130301",
"@  c #1A0400",
"#  c #140B01",
"$  c #1B0A00",
"%  c #130C0A",
"&  c #1D1103",
"*  c #171308",
"=  c #1E1D1D",
"-  c #1D1312",
";  c #0E1217",
":  c #220D00",
">  c #290F00",
",  c #231201",
"<  c #2A1500",
"1  c #2B1A02",
"2  c #2D1E09",
"3  c #231708",
"4  c #331C02",
"5  c #331E0A",
"6  c #351600",
"7  c #291E16",
"8  c #381D12",
"9  c #2C2102",
"0  c #292607",
"q  c #332302",
"w  c #3C2402",
"e  c #362B04",
"r  c #39280A",
"t  c #3E3504",
"y  c #363003",
"u  c #282319",
"i  c #372918",
"p  c #3A321C",
"a  c #3A391C",
"s  c #252524",
"d  c #2D2D2C",
"f  c #292927",
"g  c #342D27",
"h  c #393324",
"j  c #343433",
"k  c #383837",
"l  c #3C3B3B",
"z  c #363837",
"x  c #411A00",
"c  c #432501",
"v  c #422C0B",
"b  c #452706",
"n  c #473605",
"m  c #573909",
"M  c #433214",
"N  c #4B3412",
"B  c #49371B",
"V  c #5A3A16",
"C  c #4E2F0A",
"Z  c #613F08",
"A  c #473B2A",
"S  c #473D33",
"D  c #513D21",
"F  c #3F403E",
"G  c #5A4809",
"H  c #5A5207",
"J  c #59471C",
"K  c #4B4314",
"L  c #67430C",
"P  c #744D0B",
"I  c #74420A",
"U  c #6E5B05",
"Y  c #75530D",
"T  c #634716",
"R  c #735011",
"E  c #7B5818",
"W  c #6B541A",
"Q  c #786D16",
"!  c #5A4728",
"~  c #4C4536",
"^  c #564B38",
"/  c #58533D",
"(  c #424020",
")  c #6A4E23",
"_  c #634B2A",
"`  c #744A22",
"'  c #675423",
"]  c #765B2C",
"[  c #745925",
"{  c #634C37",
"}  c #685738",
"|  c #755B34",
" . c #796627",
".. c #776939",
"X. c #444443",
"o. c #4B4C4B",
"O. c #4A4747",
"+. c #5C5447",
"@. c #525251",
"#. c #685342",
"$. c #685C46",
"%. c #735C4B",
"&. c #624F47",
"*. c #796746",
"=. c #796555",
"-. c #797657",
";. c #6D6950",
":. c #675F6A",
">. c #7C6B60",
",. c #7C7668",
"<. c #7D7C7E",
"1. c #835C13",
"2. c #825717",
"3. c #8A6015",
"4. c #8A761C",
"5. c #99761D",
"6. c #916E0F",
"7. c #A57413",
"8. c #835E3A",
"9. c #956C28",
"0. c #85663B",
"q. c #8B7138",
"w. c #91762B",
"e. c #A27A3A",
"r. c #B17D2C",
"t. c #876A4F",
"y. c #896A48",
"u. c #857447",
"i. c #977B49",
"p. c #8A6D56",
"a. c #897858",
"s. c #947B53",
"d. c #997E55",
"f. c #906E49",
"g. c #837B68",
"h. c #88796E",
"j. c #9B891B",
"k. c #92903B",
"l. c #948D2F",
"z. c #A6913E",
"x. c #AE8C28",
"c. c #A7A33A",
"v. c #CB8F14",
"b. c #CABD18",
"n. c #D8A61F",
"m. c #E7A513",
"M. c #CB9A27",
"N. c #CA9B37",
"B. c #C79737",
"V. c #C48E32",
"C. c #D6A92B",
"Z. c #D4A72B",
"A. c #C8B82D",
"S. c #E5AF3E",
"D. c #D4C833",
"F. c #ECD333",
"G. c #FCE32E",
"H. c #E7E33C",
"J. c #FAE93A",
"K. c #FFF834",
"L. c #9C8849",
"P. c #958358",
"I. c #9B8559",
"U. c #8E8753",
"Y. c #A78848",
"T. c #B59849",
"R. c #A0895C",
"E. c #A9965A",
"W. c #B4945B",
"Q. c #B8AE47",
"!. c #B3AB45",
"~. c #9B8A6A",
"^. c #999766",
"/. c #94887A",
"(. c #948971",
"). c #A68E6D",
"_. c #A89466",
"`. c #AE9872",
"'. c #B3AA66",
"]. c #AEAB6C",
"[. c #C79E45",
"{. c #D7BF59",
"}. c #C5A156",
"|. c #C5AC7A",
" X c #D5A775",
".X c #CBBA79",
"XX c #CBB067",
"oX c #D8C05A",
"OX c #D4C656",
"+X c #CEC840",
"@X c #F7DE49",
"#X c #E8D856",
"$X c #EECD4A",
"%X c #F9E848",
"&X c #FAEA55",
"*X c #FFFF5A",
"=X c #FFFB41",
"-X c #DBC87A",
";X c #CEC16D",
":X c #E5D667",
">X c #EBD76A",
",X c #FCEB69",
"<X c #FFF362",
"1X c #FFF26F",
"2X c #FFFE6B",
"3X c #FFFA65",
"4X c #FAE774",
"5X c #FFF370",
"6X c #FFFB72",
"7X c #FFFB7B",
"8X c #958E87",
"9X c #9C908D",
"0X c #AA9D91",
"qX c #BBA488",
"wX c #BEB39A",
"eX c #AAA4A4",
"rX c #C4B597",
"tX c #CDB888",
"yX c #CCBCA7",
"uX c #DCC688",
"iX c #DBCA9F",
"pX c #FEFE81",
"aX c #F9F58F",
"sX c #FEF793",
"dX c #FFFB93",
"fX c #F6F294",
"gX c #DED8B2",
"hX c #C6C3B8",
"jX c #E8D8AC",
"kX c #E8DCB2",
"lX c #E2CBA1",
"zX c #FEFBAA",
"xX c #F2E7B4",
"cX c #B9B8C5",
"vX c #EADCCE",
"bX c #F2EACE",
"nX c #E0DCF7",
"mX c #EBE5E5",
"MX c #FFFEFE",
"NX c #F6F8F8",
"BX c #F7EFEB",
"VX c #D3CFCA",
/* pixels */
"                                                                                                                                ",
"a.                                                                                                                      B       ",
" Xq.                                                                                                                  B         ",
"  J $                                                                                                               * N         ",
"  # #                                                                                                               B b         ",
"    m q                                                                                                           M N           ",
"    3 7.q                                                                                                       G C <           ",
"    . w v.T                                                                                                 7.T B , 4           ",
"      . q m.5.q.                                                                                          B.V ..p ,             ",
"      $ . y n.V.XX                                                                                      x.V u.A # w             ",
"        w . 9 6.r.|.                                                                                [.3.) *.a X 6               ",
"          + . o n R I.kX                                                                          3.2.! / * : v                 ",
"        /.    + . e w { eXxX                                                                  1.Y W A u $ w                     ",
"          L       . # q w =.cX                                                              P E ! i & 6     $ h     P 3.L.      ",
"          $ ! vX    8 . & q v h.vX                                                      E E ' p * <       w `   ).d.a.y.} wX    ",
"            . < >.mX    + . q q ! 9XNX                    6                         R E [ h 3 1 4     6 V i.    %X&X*X+Xy.Y     ",
"            : & U J :.MX    . # q 1 { eX            *.* / O.4 _.$.              Y 1.E B - , 4     , c f.;X,X  G.G.G.K.b...P     ",
"              . 0 H.l.p h.      $ 1 9 w >.kX        B r { qXp.R.<             1.E ! u $ 6     : x 0.-X2XF.  J.J.J.J.=XA.q.2.    ",
"                . 9 H.&Xw.^ z.      $ 1 & T.L.          . -.fXD.*.BX      < 5.[ i % ,       C e.-XpXD.t   u y e e e e 9 N C     ",
"                w X . H c.k.J r .     b . 4 W .           s.2Xb.s.2.      } A . $       I 2.i.^.k.n .     : $ $ $ $ $ , <       ",
"                    5 + . $ M r 1 # 3     - . # jX        y.:XD.*.yX    i.S 3 J     P m M i i $ . X                             ",
"                              < q w < + a.a.O @ bX      qXiX>X%X' nX    ).+ ) ~.B 1 1 1 1 <                                     ",
"                    / A L               c q.J s.8X/.    8 bX&X,XQ.A   Z _.qX_ ] c               5 T ]                           ",
"                      2 v _ I.W.s.0.] 2.9.rXR.P.^ : ) ] h.aX#X:X7XG N 7 _ 9.%.`.m M ~ +.;.-.+.M w                               ",
"                          $ 7 I.].*.D 4 1 5 I.A . b S ^.sX#X:X4XOXv b 4 + ] B . 5 r ~ $.].u.i 1                                 ",
"                            < . X + <       I.<   P.. H *X>X:X7Xk.. # `.  % '.      X X X X ,                                   ",
"                              w 6       M.T.*   MXY.  X @X4X:X6XW .   `.    h uX*.                                              ",
"                                      > 9.5 .   xX9.  . x.6X4X:X1 *   T VX  . [ $XT.                                            ",
"                                    ~.%.g.X     Y.uX  . U 3XpX!..     6 8X    t @X=.  s.t.f.t.t.t.t.t.t.t.t.t.p.8.a.            ",
"                                    ).zX ..   MX*.hX    & @XpX ..     Y g.NX  % 7X5X  sXdXsXsXsXsXsXsXsXsXsXsXzX'.0.            ",
"                                    . K n 6   .Xg.eX    . A.2Xe ,     .Xa.MX  . zX&X  1X6X5X5X5X5X5X5X1X1X5X1XpXQ.[             ",
"                                    1 . q m   ] E.(.MX  . j.F.+ <   Y.kXL. X  3 dXOX  3X<X<X<X<X<X<X<X<X<X<X<X6X!.0.            ",
"                                      1 w     u.&X..MX    G 6.X     jXgX4.+   v.N   B n t t t t t t t n n t t n e N             ",
"                                        q m   . Q 4.nX    . 1 >     mX_.1 +   q O   : $ $ $ $ $ $ $ $ @ $ $ $ @ , <             ",
"                                          1   $ . q yX    . # X     xXJ .     .                                                 ",
"                                                % o $.MX  . :     MX .# *.                                                      ",
"                                                a.. + MX    +     vXX + P.                                                      ",
"                                              i _   X ).    .   MXu ,   X q.W.s.J 1 q.                                          ",
"                                            # u A   , X mX      ,.    !   . U.... @                                             ",
"                                          x.v +   W.    i     p .     (   < . h ).                                              ",
"                                        }.! &     `     }       *.    * V   , A ,.                                              ",
"                                    $.B 3 +     8.#     rX      jX      *     @ + <                                             ",
"                                              ` u       i.      }       $ ,           3 %.#.#.#.#.#.#.#.#.#.#.#.#.#.&.| |       ",
"                                            (.&       9.R.      r -       6 d.      ~ tX:XoX{.oXoXoXoXoXoXoXoXoXoX{.>Xz.*.      ",
"                                                      ) u.      g #               . P.,Xn.C.C.C.C.C.C.C.C.C.C.C.C.Z.F.5.}       ",
"                                                    ; B   <.  XX  w n           + P.4XM.B.N.N.N.N.N.N.N.N.N.N.N.N.N.S.9...      ",
"                                                  e 3   |.h.  tXX.  9 O       { h ..q < 0 2 2 2 2 2 2 2 2 2 2 2 2 2 q & N       ",
"                                                q.5 +   Y.  /.  3   < . R     S : + $ , & , , , , , , , , , , , , , $ < <       ",
"                                            | ! 3 +   e.2   lX  . w   < 4 ! 0.                                                  ",
"                                          h & +       !     gX    .     < X 4                                                   ",
"                                                    5 o   L ~.    , r                                                           ",
"                                                  h 1     q c c     b t.                                                        ",
"                                                          . #                                                                   ",
"                                                            w                                                                   ",
"                                                                                                                                ",
"                                                                                                                                ",
"                                                                                                                                ",
"                                                                                                                                ",
"                                                                                                                                ",
"      d f     d         z                                           f       z                       k     k j     j       j s   ",
"      l k     k j     k X.    X.    k   X.k   f X.      d     d     k     l d k     l l         o.z =   @.j j     X.z O.  l k l ",
"      X.      O.l     j o.    j     k     O.j z         F O.j k               j     F X.        k       l     z   X.j     X.O.k ",
"      d s   k s       z d     z z   k     l z   l       l O.j     l = j   O.k z   l f   o.      o.d     z z l     k z     s     ",
"      z =             d d         s j                               u d     = l                   u d     s j                   "
};
