/* XPM */
static char *d70ac0fd8df64f83ce5b0a319e7b2d49QTAKPnOZ7ITplLfb[] = {
/* columns rows colors chars-per-pixel */
"16 16 75 1 ",
"  c None",
". c #050000",
"X c #0B0000",
"o c #100701",
"O c #191013",
"+ c #261D0D",
"@ c #2E1B0D",
"# c #311701",
"$ c #311C00",
"% c #321F0F",
"& c #3E2616",
"* c #30252B",
"= c #343626",
"- c #3C3B3C",
"; c #472A00",
": c #412B1E",
"> c #4D341C",
", c #403325",
"< c #493226",
"1 c #4C3D2B",
"2 c #4E4A00",
"3 c #5F410F",
"4 c #514013",
"5 c #5C4113",
"6 c #534C12",
"7 c #614717",
"8 c #4B4021",
"9 c #4C402F",
"0 c #564B2F",
"q c #5B4533",
"w c #6C4D20",
"e c #645D2B",
"r c #675737",
"t c #645E36",
"y c #65583C",
"u c #745C31",
"i c #7A5F3A",
"p c #746435",
"a c #444646",
"s c #4F4A44",
"d c #4B4B4A",
"f c #5A5659",
"g c #655440",
"h c #6A604F",
"j c #746149",
"k c #7D6F4E",
"l c #787763",
"z c #856D2C",
"x c #8A6D29",
"c c #917927",
"v c #92762E",
"b c #866F40",
"n c #86795A",
"m c #82706D",
"M c #9B961D",
"N c #9C932B",
"B c #BE8533",
"V c #B58C32",
"C c #BE9032",
"Z c #BB9737",
"A c #8F8B54",
"S c #918356",
"D c #AC9746",
"F c #B49C58",
"G c #B6AA4B",
"H c #988566",
"J c #9A937D",
"K c #DABB4A",
"L c #DDD95F",
"P c #D6C962",
"I c #DECD63",
"U c #D2CA69",
"Y c #DDD168",
"T c #A7A48E",
"R c #AAA88F",
/* pixels */
"                ",
".             X ",
" 3F          ,  ",
" sfh       5oeK ",
"  A8On p  ;@tNM ",
"   4#qmPD<%+    ",
"    ijyL0gr:    ",
"     SR2kJGIYUb ",
"      l T7   6  ",
"      *  $      ",
"     &     BZCV ",
"      wH= ucxvz ",
"      >19       ",
"                ",
"                ",
" -   d  a       "
};
