<?xml version="1.0" encoding="UTF-8"?>
<!DOCTYPE svg PUBLIC "-//W3C//DTD SVG 1.1//EN" "http://www.w3.org/Graphics/SVG/1.1/DTD/svg11.dtd">
<svg xmlns="http://www.w3.org/2000/svg" version="1.1" width="100px" height="100px" style="shape-rendering:geometricPrecision; text-rendering:geometricPrecision; image-rendering:optimizeQuality; fill-rule:evenodd; clip-rule:evenodd" xmlns:xlink="http://www.w3.org/1999/xlink">
<g><path style="opacity:0.821" fill="#a09ea3" d="M 22.5,5.5 C 24.0174,5.51056 25.1841,6.17723 26,7.5C 30.4562,13.6249 35.2895,19.4583 40.5,25C 64.604,21.7712 75.7707,32.2712 74,56.5C 72.3531,62.1348 69.1864,66.6348 64.5,70C 65.624,70.2492 66.624,70.7492 67.5,71.5C 65.5767,72.3078 63.5767,72.8078 61.5,73C 66.0102,78.3418 70.6769,83.5084 75.5,88.5C 80.3231,83.5084 84.9898,78.3418 89.5,73C 87.1902,72.5034 84.8568,72.3367 82.5,72.5C 82.1826,69.4281 82.5159,66.4281 83.5,63.5C 84.4742,65.7427 84.8076,68.076 84.5,70.5C 88.1817,70.3347 91.8484,70.5014 95.5,71C 88.619,78.3768 81.9523,85.8768 75.5,93.5C 69.9611,86.947 64.2945,80.447 58.5,74C 32.563,76.7296 21.7296,65.2296 26,39.5C 27.7766,35.0962 30.6099,31.5962 34.5,29C 33.376,28.7508 32.376,28.2508 31.5,27.5C 33.4233,26.6922 35.4233,26.1922 37.5,26C 32.9898,20.6582 28.3231,15.4916 23.5,10.5C 18.6769,15.4916 14.0102,20.6582 9.5,26C 11.8098,26.4966 14.1432,26.6633 16.5,26.5C 16.8174,29.5719 16.4841,32.5719 15.5,35.5C 14.5258,33.2573 14.1924,30.924 14.5,28.5C 10.8183,28.6653 7.15159,28.4986 3.5,28C 10.4197,20.9204 16.753,13.4204 22.5,5.5 Z"/></g>
<g><path style="opacity:1" fill="#c6a612" d="M 66.5,64.5 C 63.6447,63.1968 60.6447,63.1968 57.5,64.5C 60.0865,65.48 62.7531,65.8134 65.5,65.5C 58.441,72.4158 50.1076,74.2491 40.5,71C 37.7339,69.629 35.4006,67.7957 33.5,65.5C 26.5842,58.441 24.7509,50.1076 28,40.5C 35.3936,27.1456 46.227,23.3123 60.5,29C 72.3252,36.8138 75.4919,47.3138 70,60.5C 69.0513,62.0931 67.8846,63.4264 66.5,64.5 Z"/></g>
<g><path style="opacity:1" fill="#9f9ea4" d="M 14.5,39.5 C 15.5862,39.62 16.2528,40.2867 16.5,41.5C 16.1667,42.1667 15.8333,42.8333 15.5,43.5C 14.5713,42.3112 14.238,40.9778 14.5,39.5 Z"/></g>
<g><path style="opacity:1" fill="#9f9ea4" d="M 82.5,43.5 C 83.7479,44.3339 84.4146,45.6672 84.5,47.5C 84.1667,48.8333 83.8333,50.1667 83.5,51.5C 82.52,48.9135 82.1866,46.2469 82.5,43.5 Z"/></g>
<g><path style="opacity:1" fill="#725b1b" d="M 57.5,45.5 C 55.549,45.2267 54.049,45.8934 53,47.5C 52.6667,47.1667 52.3333,46.8333 52,46.5C 51.7216,47.4158 51.2216,48.0825 50.5,48.5C 49.7321,49.2625 49.2321,50.2625 49,51.5C 44.3036,45.0288 43.8036,45.3621 47.5,52.5C 46.8075,53.5178 46.1408,54.5178 45.5,55.5C 41.8705,54.4984 41.8705,52.9984 45.5,51C 42.7007,50.5609 41.7007,49.2276 42.5,47C 39.7215,45.8881 37.5549,44.0547 36,41.5C 35.3828,40.5509 35.5494,39.7175 36.5,39C 33.9683,38.3878 33.1349,36.8878 34,34.5C 37.0219,37.6011 40.5219,40.1011 44.5,42C 45.9763,43.7135 47.3096,45.5468 48.5,47.5C 49.641,45.5787 49.8077,43.5787 49,41.5C 48.0862,42.6537 47.2529,42.487 46.5,41C 47.7932,40.51 49.1266,40.3433 50.5,40.5C 50.3505,41.552 50.5172,42.552 51,43.5C 55.694,40.651 60.0273,37.3177 64,33.5C 63.8276,36.3513 62.6609,38.8513 60.5,41C 62.4335,41.7826 63.9335,41.2826 65,39.5C 65.4828,40.448 65.6495,41.448 65.5,42.5C 62.224,42.144 59.5573,43.144 57.5,45.5 Z"/></g>
<g><path style="opacity:1" fill="#a68e33" d="M 57.5,45.5 C 59.2646,46.4614 61.2646,46.7947 63.5,46.5C 63.5,47.8333 63.5,49.1667 63.5,50.5C 59.8333,50.5 56.1667,50.5 52.5,50.5C 52.0623,49.4937 51.3957,49.4937 50.5,50.5C 50.5,49.8333 50.5,49.1667 50.5,48.5C 51.2216,48.0825 51.7216,47.4158 52,46.5C 52.3333,46.8333 52.6667,47.1667 53,47.5C 54.049,45.8934 55.549,45.2267 57.5,45.5 Z"/></g>
<g><path style="opacity:1" fill="#9f9ea4" d="M 14.5,47.5 C 15.7479,48.3339 16.4146,49.6672 16.5,51.5C 16.1667,52.8333 15.8333,54.1667 15.5,55.5C 14.52,52.9135 14.1866,50.2469 14.5,47.5 Z"/></g>
<g><path style="opacity:1" fill="#5e4812" d="M 52.5,50.5 C 53.2625,51.2679 54.2625,51.7679 55.5,52C 54.7476,52.6708 54.4142,53.5041 54.5,54.5C 53.603,53.4019 52.7697,53.4019 52,54.5C 51.2086,53.255 50.7086,51.9217 50.5,50.5C 51.3957,49.4937 52.0623,49.4937 52.5,50.5 Z"/></g>
<g><path style="opacity:1" fill="#ab8b28" d="M 50.5,48.5 C 50.5,49.1667 50.5,49.8333 50.5,50.5C 50.7086,51.9217 51.2086,53.255 52,54.5C 52.7697,53.4019 53.603,53.4019 54.5,54.5C 57.8175,53.7791 61.1508,53.6124 64.5,54C 65.7911,55.2917 65.7911,56.4583 64.5,57.5C 61.1027,56.8018 57.6027,56.1352 54,55.5C 53.5357,56.0944 53.369,56.7611 53.5,57.5C 51.9826,57.4894 50.8159,56.8228 50,55.5C 48.4361,55.9121 46.9361,56.2454 45.5,56.5C 45.5,56.1667 45.5,55.8333 45.5,55.5C 46.1408,54.5178 46.8075,53.5178 47.5,52.5C 43.8036,45.3621 44.3036,45.0288 49,51.5C 49.2321,50.2625 49.7321,49.2625 50.5,48.5 Z"/></g>
<g><path style="opacity:1" fill="#9f9ea4" d="M 82.5,55.5 C 83.5862,55.62 84.2528,56.2867 84.5,57.5C 84.1667,58.1667 83.8333,58.8333 83.5,59.5C 82.5713,58.3112 82.238,56.9778 82.5,55.5 Z"/></g>
<g><path style="opacity:1" fill="#483105" d="M 64.5,57.5 C 60.8333,57.5 57.1667,57.5 53.5,57.5C 53.369,56.7611 53.5357,56.0944 54,55.5C 57.6027,56.1352 61.1027,56.8018 64.5,57.5 Z"/></g>
<g><path style="opacity:1" fill="#7c6313" d="M 53.5,57.5 C 50.6447,60.938 47.6447,61.1047 44.5,58C 45.056,57.6174 45.3893,57.1174 45.5,56.5C 46.9361,56.2454 48.4361,55.9121 50,55.5C 50.8159,56.8228 51.9826,57.4894 53.5,57.5 Z"/></g>
<g><path style="opacity:1" fill="#988425" d="M 33.5,65.5 C 34.3339,64.2521 35.6672,63.5854 37.5,63.5C 40.3286,64.1704 42.9953,64.5037 45.5,64.5C 41.5546,65.4909 37.5546,65.8242 33.5,65.5 Z"/></g>
<g><path style="opacity:1" fill="#938025" d="M 47.5,63.5 C 50.6065,63.476 53.2731,63.8094 55.5,64.5C 54.1667,64.8333 52.8333,65.1667 51.5,65.5C 49.6672,65.4146 48.3339,64.7479 47.5,63.5 Z"/></g>
<g><path style="opacity:1" fill="#9b8723" d="M 66.5,64.5 C 66.5,65.1667 66.1667,65.5 65.5,65.5C 62.7531,65.8134 60.0865,65.48 57.5,64.5C 60.6447,63.1968 63.6447,63.1968 66.5,64.5 Z"/></g>
</svg>
