<?xml version="1.0" encoding="UTF-8"?>
<!DOCTYPE svg PUBLIC "-//W3C//DTD SVG 1.1//EN" "http://www.w3.org/Graphics/SVG/1.1/DTD/svg11.dtd">
<svg xmlns="http://www.w3.org/2000/svg" version="1.1" width="256px" height="256px" style="shape-rendering:geometricPrecision; text-rendering:geometricPrecision; image-rendering:optimizeQuality; fill-rule:evenodd; clip-rule:evenodd" xmlns:xlink="http://www.w3.org/1999/xlink">
<g><path style="opacity:0.596" fill="#ccb87d" d="M 153.5,20.5 C 120.183,22.4931 86.5166,23.1598 52.5,22.5C 54.1368,21.6204 55.9701,20.9537 58,20.5C 89.7871,20.5834 121.62,20.5834 153.5,20.5 Z"/></g>
<g><path style="opacity:1" fill="#a88806" d="M 153.5,20.5 C 166.167,20.5 178.833,20.5 191.5,20.5C 191.5,31.8333 191.5,43.1667 191.5,54.5C 191.5,55.1667 191.5,55.8333 191.5,56.5C 191.5,57.1667 191.167,57.5 190.5,57.5C 142.512,55.5047 94.1782,54.8381 45.5,55.5C 45.3335,45.4944 45.5002,35.4944 46,25.5C 47.5848,24.6243 48.5848,23.2909 49,21.5C 49.3333,22.1667 49.6667,22.8333 50,23.5C 50.6708,22.7476 51.5041,22.4142 52.5,22.5C 86.5166,23.1598 120.183,22.4931 153.5,20.5 Z"/></g>
<g><path style="opacity:0.051" fill="#f4f4e9" d="M 192.5,20.5 C 193.659,31.9927 193.826,43.6593 193,55.5C 192.617,56.056 192.117,56.3893 191.5,56.5C 191.5,55.8333 191.5,55.1667 191.5,54.5C 192.495,43.3456 192.828,32.0123 192.5,20.5 Z"/></g>
<g><path style="opacity:0.434" fill="#ddd2b1" d="M 153.5,20.5 C 166.5,19.1667 179.5,19.1667 192.5,20.5C 192.828,32.0123 192.495,43.3456 191.5,54.5C 191.5,43.1667 191.5,31.8333 191.5,20.5C 178.833,20.5 166.167,20.5 153.5,20.5 Z"/></g>
<g><path style="opacity:0.998" fill="#e0bc31" d="M 45.5,55.5 C 94.1782,54.8381 142.512,55.5047 190.5,57.5C 189.167,57.5 188.5,58.1667 188.5,59.5C 188.167,60.5 187.5,61.1667 186.5,61.5C 142.499,61.6667 98.4987,61.5 54.5,61C 52.8056,57.9225 50.1389,56.4225 46.5,56.5C 45.8333,56.5 45.5,56.1667 45.5,55.5 Z"/></g>
<g><path style="opacity:0.071" fill="#f3e6c5" d="M 190.5,57.5 C 190.5,58.8333 189.833,59.5 188.5,59.5C 188.5,58.1667 189.167,57.5 190.5,57.5 Z"/></g>
<g><path style="opacity:0.262" fill="#f3e6be" d="M 46.5,56.5 C 50.1389,56.4225 52.8056,57.9225 54.5,61C 98.4987,61.5 142.499,61.6667 186.5,61.5C 143.335,62.7087 100.002,63.2087 56.5,63C 52.9644,61.0706 49.6311,58.9039 46.5,56.5 Z"/></g>
<g><path style="opacity:0.718" fill="#c7b36e" d="M 174.5,99.5 C 174.5,99.8333 174.5,100.167 174.5,100.5C 131.835,101.013 89.1684,101.347 46.5,101.5C 46.5,101.167 46.5,100.833 46.5,100.5C 88.9967,99.5013 131.663,99.168 174.5,99.5 Z"/></g>
<g><path style="opacity:0.369" fill="#e2c99c" d="M 174.5,99.5 C 175.495,110.988 175.828,122.655 175.5,134.5C 132.499,134.667 89.4987,134.5 46.5,134C 45.1708,122.735 45.1708,111.569 46.5,100.5C 46.5,100.833 46.5,101.167 46.5,101.5C 46.5,111.833 46.5,122.167 46.5,132.5C 89.175,132.255 131.842,132.589 174.5,133.5C 174.5,122.5 174.5,111.5 174.5,100.5C 174.5,100.167 174.5,99.8333 174.5,99.5 Z"/></g>
<g><path style="opacity:1" fill="#a98902" d="M 174.5,100.5 C 174.5,111.5 174.5,122.5 174.5,133.5C 131.842,132.589 89.175,132.255 46.5,132.5C 46.5,122.167 46.5,111.833 46.5,101.5C 89.1684,101.347 131.835,101.013 174.5,100.5 Z"/></g>
<g><path style="opacity:0.592" fill="#faf6e2" d="M 93.5,148.5 C 93.5,147.5 93.5,146.5 93.5,145.5C 83.2027,145.01 73.2027,146.01 63.5,148.5C 57.5,148.5 51.5,148.5 45.5,148.5C 45.5,149.5 45.5,150.5 45.5,151.5C 45.815,155.371 45.4816,159.038 44.5,162.5C 44.3341,157.489 44.5007,152.489 45,147.5C 46.7998,145.683 48.9664,144.516 51.5,144C 65.8333,143.333 80.1667,143.333 94.5,144C 95.9156,145.915 95.5822,147.415 93.5,148.5 Z"/></g>
<g><path style="opacity:0.831" fill="#f6e7ac" d="M 93.5,148.5 C 92.8333,149.833 91.8333,150.833 90.5,151.5C 90.5,150.5 90.5,149.5 90.5,148.5C 81.5,148.5 72.5,148.5 63.5,148.5C 73.2027,146.01 83.2027,145.01 93.5,145.5C 93.5,146.5 93.5,147.5 93.5,148.5 Z"/></g>
<g><path style="opacity:1" fill="#d8c16a" d="M 63.5,148.5 C 72.5,148.5 81.5,148.5 90.5,148.5C 90.5,149.5 90.5,150.5 90.5,151.5C 88.8532,154.473 86.8532,157.14 84.5,159.5C 85.37,156.031 87.0367,153.031 89.5,150.5C 82.3333,150.167 75.1667,149.833 68,149.5C 60.4675,149.503 53.3008,150.169 46.5,151.5C 46.1667,151.5 45.8333,151.5 45.5,151.5C 45.5,150.5 45.5,149.5 45.5,148.5C 51.5,148.5 57.5,148.5 63.5,148.5 Z"/></g>
<g><path style="opacity:1" fill="#ac8b06" d="M 84.5,159.5 C 81.0812,160.042 79.4145,162.042 79.5,165.5C 76.4384,166.268 74.7717,168.268 74.5,171.5C 70.0214,172.775 67.688,175.775 67.5,180.5C 67.5,181.167 67.1667,181.5 66.5,181.5C 63.676,181.989 62.3426,183.656 62.5,186.5C 60.1073,187.353 58.774,189.019 58.5,191.5C 57.7611,191.369 57.0944,191.536 56.5,192C 54.9456,194.287 53.2789,196.454 51.5,198.5C 50.2058,199.29 49.0391,200.29 48,201.5C 47.8315,184.662 47.3315,167.995 46.5,151.5C 53.3008,150.169 60.4675,149.503 68,149.5C 75.1667,149.833 82.3333,150.167 89.5,150.5C 87.0367,153.031 85.37,156.031 84.5,159.5 Z"/></g>
<g><path style="opacity:0.639" fill="#efda97" d="M 84.5,159.5 C 83.2993,161.909 81.6326,163.909 79.5,165.5C 79.4145,162.042 81.0812,160.042 84.5,159.5 Z"/></g>
<g><path style="opacity:0.72" fill="#bca23d" d="M 46.5,151.5 C 47.3315,167.995 47.8315,184.662 48,201.5C 49.0391,200.29 50.2058,199.29 51.5,198.5C 51.2687,201.063 49.9354,202.73 47.5,203.5C 46.5146,186.244 46.1813,168.91 46.5,151.5 Z"/></g>
<g><path style="opacity:0.196" fill="#dfd5b6" d="M 45.5,151.5 C 45.8333,151.5 46.1667,151.5 46.5,151.5C 46.1813,168.91 46.5146,186.244 47.5,203.5C 47.19,204.738 46.69,204.738 46,203.5C 45.2579,189.84 44.7579,176.173 44.5,162.5C 45.4816,159.038 45.815,155.371 45.5,151.5 Z"/></g>
<g><path style="opacity:0.059" fill="#f6e8b1" d="M 79.5,165.5 C 77.823,167.54 76.1563,169.54 74.5,171.5C 74.7717,168.268 76.4384,166.268 79.5,165.5 Z"/></g>
<g><path style="opacity:0.301" fill="#e6dec6" d="M 186.5,171.5 C 170.5,171.5 154.5,171.5 138.5,171.5C 136.5,171.5 134.5,171.5 132.5,171.5C 120.674,170.34 108.674,170.174 96.5,171C 94.2345,172.758 92.5678,174.925 91.5,177.5C 90.8333,177.5 90.5,177.833 90.5,178.5C 86.177,184.155 81.5103,189.488 76.5,194.5C 82.212,185.942 88.5453,177.775 95.5,170C 126.005,169.692 156.338,170.192 186.5,171.5 Z"/></g>
<g><path style="opacity:0.994" fill="#f9e592" d="M 132.5,171.5 C 124.5,171.5 116.5,171.5 108.5,171.5C 108.232,173.099 108.566,174.432 109.5,175.5C 103.739,177.057 97.7386,177.724 91.5,177.5C 92.5678,174.925 94.2345,172.758 96.5,171C 108.674,170.174 120.674,170.34 132.5,171.5 Z"/></g>
<g><path style="opacity:0.972" fill="#bf9f37" d="M 138.5,171.5 C 154.5,171.5 170.5,171.5 186.5,171.5C 186.557,172.609 186.89,173.609 187.5,174.5C 170.786,174.195 154.119,174.529 137.5,175.5C 139.138,174.295 139.471,172.962 138.5,171.5 Z"/></g>
<g><path style="opacity:1" fill="#debf5f" d="M 132.5,171.5 C 134.5,171.5 136.5,171.5 138.5,171.5C 139.471,172.962 139.138,174.295 137.5,175.5C 128.167,175.5 118.833,175.5 109.5,175.5C 108.566,174.432 108.232,173.099 108.5,171.5C 116.5,171.5 124.5,171.5 132.5,171.5 Z"/></g>
<g><path style="opacity:0.314" fill="#e8d4a9" d="M 186.5,171.5 C 188.914,172.911 190.581,174.911 191.5,177.5C 190.167,176.5 188.833,175.5 187.5,174.5C 186.89,173.609 186.557,172.609 186.5,171.5 Z"/></g>
<g><path style="opacity:1" fill="#d6b337" d="M 187.5,174.5 C 188.833,175.5 190.167,176.5 191.5,177.5C 191.5,177.833 191.5,178.167 191.5,178.5C 157.833,178.5 124.167,178.5 90.5,178.5C 90.5,177.833 90.8333,177.5 91.5,177.5C 97.7386,177.724 103.739,177.057 109.5,175.5C 118.833,175.5 128.167,175.5 137.5,175.5C 154.119,174.529 170.786,174.195 187.5,174.5 Z"/></g>
<g><path style="opacity:0.451" fill="#f1d88b" d="M 74.5,171.5 C 72.5179,174.81 70.1846,177.81 67.5,180.5C 67.688,175.775 70.0214,172.775 74.5,171.5 Z"/></g>
<g><path style="opacity:1" fill="#aa8906" d="M 90.5,178.5 C 124.167,178.5 157.833,178.5 191.5,178.5C 191.5,189.5 191.5,200.5 191.5,211.5C 181.833,212.833 172.167,212.833 162.5,211.5C 131.019,209.727 99.3524,209.06 67.5,209.5C 69.1576,204.762 71.9909,200.762 76,197.5C 76.4828,196.552 76.6495,195.552 76.5,194.5C 81.5103,189.488 86.177,184.155 90.5,178.5 Z"/></g>
<g><path style="opacity:0.333" fill="#f2e2a7" d="M 66.5,181.5 C 65.2029,183.161 63.8696,184.828 62.5,186.5C 62.3426,183.656 63.676,181.989 66.5,181.5 Z"/></g>
<g><path style="opacity:0.239" fill="#f6eac4" d="M 62.5,186.5 C 61.9202,188.749 60.5869,190.415 58.5,191.5C 58.774,189.019 60.1073,187.353 62.5,186.5 Z"/></g>
<g><path style="opacity:0.11" fill="#f6e6b3" d="M 58.5,191.5 C 57.1448,194.855 54.8114,197.189 51.5,198.5C 53.2789,196.454 54.9456,194.287 56.5,192C 57.0944,191.536 57.7611,191.369 58.5,191.5 Z"/></g>
<g><path style="opacity:0.25" fill="#e9e3cf" d="M 191.5,177.5 C 192.968,181.742 193.634,186.242 193.5,191C 193.292,198.028 192.625,204.861 191.5,211.5C 191.5,200.5 191.5,189.5 191.5,178.5C 191.5,178.167 191.5,177.833 191.5,177.5 Z"/></g>
<g><path style="opacity:0.212" fill="#d6cba2" d="M 76.5,194.5 C 76.6495,195.552 76.4828,196.552 76,197.5C 71.9909,200.762 69.1576,204.762 67.5,209.5C 67.5,210.167 67.5,210.833 67.5,211.5C 65.086,210.223 64.9193,208.557 67,206.5C 69.4761,201.842 72.6428,197.842 76.5,194.5 Z"/></g>
<g><path style="opacity:0.598" fill="#ceb56d" d="M 67.5,209.5 C 99.3524,209.06 131.019,209.727 162.5,211.5C 130.833,211.5 99.1667,211.5 67.5,211.5C 67.5,210.833 67.5,210.167 67.5,209.5 Z"/></g>
</svg>
