<?xml version="1.0" encoding="UTF-8"?>
<!DOCTYPE svg PUBLIC "-//W3C//DTD SVG 1.1//EN" "http://www.w3.org/Graphics/SVG/1.1/DTD/svg11.dtd">
<svg xmlns="http://www.w3.org/2000/svg" version="1.1" width="400px" height="400px" style="shape-rendering:geometricPrecision; text-rendering:geometricPrecision; image-rendering:optimizeQuality; fill-rule:evenodd; clip-rule:evenodd" xmlns:xlink="http://www.w3.org/1999/xlink">
<g><path style="opacity:0.298" fill="#e7ddcc" d="M 238.5,32.5 C 209.519,34.492 180.186,35.1587 150.5,34.5C 135.99,34.8293 121.657,34.4959 107.5,33.5C 150.997,32.5013 194.663,32.168 238.5,32.5 Z"/></g>
<g><path style="opacity:0.007" fill="#fefffe" d="M 78.5,36.5 C 77.5,36.5 76.5,36.5 75.5,36.5C 76.5,33.8333 77.5,33.8333 78.5,36.5 Z"/></g>
<g><path style="opacity:0.501" fill="#cab56e" d="M 107.5,33.5 C 121.657,34.4959 135.99,34.8293 150.5,34.5C 128.006,35.4975 105.339,35.8308 82.5,35.5C 82.6107,34.8826 82.944,34.3826 83.5,34C 85.8907,33.7132 88.2241,33.2132 90.5,32.5C 96.1045,33.4544 101.771,33.7877 107.5,33.5 Z"/></g>
<g><path style="opacity:1" fill="#a78701" d="M 299.5,85.5 C 224.66,85.1308 149.993,85.7975 75.5,87.5C 75.1667,87.5 74.8333,87.5 74.5,87.5C 73.5037,72.0089 73.1704,56.3422 73.5,40.5C 74.1667,39.1667 74.8333,37.8333 75.5,36.5C 76.5,36.5 77.5,36.5 78.5,36.5C 78.8333,36.5 79.1667,36.5 79.5,36.5C 80.2646,36.9234 81.0979,37.2568 82,37.5C 154.132,35.8154 226.299,35.1487 298.5,35.5C 298.182,52.2439 298.515,68.9105 299.5,85.5 Z"/></g>
<g><path style="opacity:0.934" fill="#b0942b" d="M 238.5,32.5 C 258.836,32.3334 279.169,32.5 299.5,33C 300.831,51.2644 300.831,69.4311 299.5,87.5C 299.5,86.8333 299.5,86.1667 299.5,85.5C 298.515,68.9105 298.182,52.2439 298.5,35.5C 226.299,35.1487 154.132,35.8154 82,37.5C 81.0979,37.2568 80.2646,36.9234 79.5,36.5C 80.209,35.596 81.209,35.2627 82.5,35.5C 105.339,35.8308 128.006,35.4975 150.5,34.5C 180.186,35.1587 209.519,34.492 238.5,32.5 Z"/></g>
<g><path style="opacity:0.241" fill="#e7e0c9" d="M 238.5,32.5 C 259.569,31.1689 280.736,31.1689 302,32.5C 302.667,50.5 302.667,68.5 302,86.5C 300.264,89.7392 297.764,92.0726 294.5,93.5C 294.5,92.8333 294.5,92.1667 294.5,91.5C 295.167,91.5 295.5,91.1667 295.5,90.5C 297.43,90.2294 298.764,89.2294 299.5,87.5C 300.831,69.4311 300.831,51.2644 299.5,33C 279.169,32.5 258.836,32.3334 238.5,32.5 Z"/></g>
<g><path style="opacity:0.09" fill="#e7e6d9" d="M 73.5,40.5 C 73.1704,56.3422 73.5037,72.0089 74.5,87.5C 74.5,88.1667 74.5,88.8333 74.5,89.5C 73.5416,89.0472 72.7083,88.3805 72,87.5C 71.8333,79.6667 71.6667,71.8333 71.5,64C 71.5023,55.8037 72.169,47.9703 73.5,40.5 Z"/></g>
<g><path style="opacity:1" fill="#c3a018" d="M 299.5,85.5 C 299.5,86.1667 299.5,86.8333 299.5,87.5C 298.764,89.2294 297.43,90.2294 295.5,90.5C 295.953,89.5416 296.619,88.7083 297.5,88C 223.501,87.5 149.501,87.3333 75.5,87.5C 149.993,85.7975 224.66,85.1308 299.5,85.5 Z"/></g>
<g><path style="opacity:1" fill="#e2bd2a" d="M 74.5,87.5 C 74.8333,87.5 75.1667,87.5 75.5,87.5C 149.501,87.3333 223.501,87.5 297.5,88C 296.619,88.7083 295.953,89.5416 295.5,90.5C 295.5,91.1667 295.167,91.5 294.5,91.5C 292.974,92.1047 291.974,93.2714 291.5,95C 222.833,95.6667 154.167,95.6667 85.5,95C 82.2249,92.3024 78.5582,90.4691 74.5,89.5C 74.5,88.8333 74.5,88.1667 74.5,87.5 Z"/></g>
<g><path style="opacity:0.267" fill="#ecd891" d="M 74.5,89.5 C 78.5582,90.4691 82.2249,92.3024 85.5,95C 154.167,95.6667 222.833,95.6667 291.5,95C 291.974,93.2714 292.974,92.1047 294.5,91.5C 294.5,92.1667 294.5,92.8333 294.5,93.5C 293.833,94.8333 292.833,95.8333 291.5,96.5C 223.498,96.5462 155.498,96.8795 87.5,97.5C 82.7012,95.6001 78.3679,92.9334 74.5,89.5 Z"/></g>
<g><path style="opacity:0.067" fill="#f5f0da" d="M 291.5,96.5 C 238.668,97.429 185.668,98.0956 132.5,98.5C 117.33,98.4999 102.33,98.1666 87.5,97.5C 155.498,96.8795 223.498,96.5462 291.5,96.5 Z"/></g>
<g><path style="opacity:0.063" fill="#e2ddc9" d="M 188.5,155.5 C 188.5,156.167 188.5,156.833 188.5,157.5C 150.167,157.5 111.833,157.5 73.5,157.5C 111.485,155.506 149.819,154.839 188.5,155.5 Z"/></g>
<g><path style="opacity:0.184" fill="#d0bf7f" d="M 188.5,155.5 C 217.167,155.5 245.833,155.5 274.5,155.5C 275.153,173.864 274.487,191.864 272.5,209.5C 272.5,192.167 272.5,174.833 272.5,157.5C 244.5,157.5 216.5,157.5 188.5,157.5C 188.5,156.833 188.5,156.167 188.5,155.5 Z"/></g>
<g><path style="opacity:1" fill="#a98902" d="M 188.5,157.5 C 216.5,157.5 244.5,157.5 272.5,157.5C 272.5,174.833 272.5,192.167 272.5,209.5C 264.833,210.833 257.167,210.833 249.5,209.5C 249.5,208.833 249.5,208.167 249.5,207.5C 249.389,206.883 249.056,206.383 248.5,206C 190.501,205.5 132.501,205.333 74.5,205.5C 74.5,190.167 74.5,174.833 74.5,159.5C 112.848,160.161 150.848,159.494 188.5,157.5 Z"/></g>
<g><path style="opacity:0.954" fill="#b19528" d="M 73.5,157.5 C 111.833,157.5 150.167,157.5 188.5,157.5C 150.848,159.494 112.848,160.161 74.5,159.5C 74.5,174.833 74.5,190.167 74.5,205.5C 132.501,205.333 190.501,205.5 248.5,206C 249.056,206.383 249.389,206.883 249.5,207.5C 190.833,207.5 132.167,207.5 73.5,207.5C 73.5,190.833 73.5,174.167 73.5,157.5 Z"/></g>
<g><path style="opacity:0.38" fill="#cab97d" d="M 73.5,207.5 C 132.167,207.5 190.833,207.5 249.5,207.5C 249.5,208.167 249.5,208.833 249.5,209.5C 249.167,209.5 248.833,209.5 248.5,209.5C 190.167,208.833 131.833,208.167 73.5,207.5 Z"/></g>
<g><path style="opacity:0.114" fill="#e5decd" d="M 73.5,157.5 C 73.5,174.167 73.5,190.833 73.5,207.5C 131.833,208.167 190.167,208.833 248.5,209.5C 189.832,209.667 131.166,209.5 72.5,209C 71.8402,200.409 71.5068,191.742 71.5,183C 71.5019,174.139 72.1686,165.639 73.5,157.5 Z"/></g>
<g><path style="opacity:0.801" fill="#fcfbf3" d="M 131.5,224.5 C 131.389,225.117 131.056,225.617 130.5,226C 120.167,226.333 109.833,226.667 99.5,227C 98.7334,228.47 98.0668,229.97 97.5,231.5C 88.5,231.5 79.5,231.5 70.5,231.5C 73.2371,227.797 76.9038,225.63 81.5,225C 98.1633,224.5 114.83,224.333 131.5,224.5 Z"/></g>
<g><path style="opacity:0.957" fill="#fcf9db" d="M 131.5,224.5 C 137.206,224.171 142.872,224.505 148.5,225.5C 149.307,227.961 148.807,230.294 147,232.5C 146.329,233.252 145.496,233.586 144.5,233.5C 145.73,231.703 146.396,229.703 146.5,227.5C 136.494,227.334 126.494,227.5 116.5,228C 115.027,228.71 114.36,229.876 114.5,231.5C 108.833,231.5 103.167,231.5 97.5,231.5C 98.0668,229.97 98.7334,228.47 99.5,227C 109.833,226.667 120.167,226.333 130.5,226C 131.056,225.617 131.389,225.117 131.5,224.5 Z"/></g>
<g><path style="opacity:1" fill="#f2e3a7" d="M 144.5,233.5 C 142.312,237.207 139.645,240.54 136.5,243.5C 136.992,241.181 137.992,239.181 139.5,237.5C 141.213,236.365 141.88,234.698 141.5,232.5C 118.327,232.169 95.3273,232.502 72.5,233.5C 71.8333,234.5 71.1667,235.5 70.5,236.5C 70.5,234.833 70.5,233.167 70.5,231.5C 79.5,231.5 88.5,231.5 97.5,231.5C 103.167,231.5 108.833,231.5 114.5,231.5C 114.36,229.876 115.027,228.71 116.5,228C 126.494,227.5 136.494,227.334 146.5,227.5C 146.396,229.703 145.73,231.703 144.5,233.5 Z"/></g>
<g><path style="opacity:1" fill="#cdb455" d="M 72.5,233.5 C 95.3273,232.502 118.327,232.169 141.5,232.5C 141.88,234.698 141.213,236.365 139.5,237.5C 139.737,236.209 139.404,235.209 138.5,234.5C 116.509,233.731 94.5087,233.398 72.5,233.5 Z"/></g>
<g><path style="opacity:1" fill="#aa8a04" d="M 72.5,233.5 C 94.5087,233.398 116.509,233.731 138.5,234.5C 136.976,238.6 134.476,241.934 131,244.5C 129.24,249.096 126.074,252.096 121.5,253.5C 121.6,256.108 120.933,258.442 119.5,260.5C 119.368,263.797 117.702,265.463 114.5,265.5C 114.771,267.38 114.104,268.713 112.5,269.5C 108.905,272.932 105.405,276.598 102,280.5C 100.767,283.734 98.7666,286.401 96,288.5C 95.5172,289.448 95.3505,290.448 95.5,291.5C 93.6723,293.538 92.1723,295.871 91,298.5C 86.9429,301.263 84.1096,304.93 82.5,309.5C 82.5,310.167 82.1667,310.5 81.5,310.5C 80.5,310.5 79.5,310.5 78.5,310.5C 77.6842,312.895 76.6842,315.229 75.5,317.5C 73.8057,289.822 72.8057,261.822 72.5,233.5 Z"/></g>
<g><path style="opacity:0.965" fill="#d5b531" d="M 138.5,234.5 C 139.404,235.209 139.737,236.209 139.5,237.5C 137.992,239.181 136.992,241.181 136.5,243.5C 135.325,243.281 134.325,243.614 133.5,244.5C 131.543,247.957 129.043,250.957 126,253.5C 125.517,254.448 125.351,255.448 125.5,256.5C 123.488,257.922 121.488,259.255 119.5,260.5C 120.933,258.442 121.6,256.108 121.5,253.5C 126.074,252.096 129.24,249.096 131,244.5C 134.476,241.934 136.976,238.6 138.5,234.5 Z"/></g>
<g><path style="opacity:0.208" fill="#f8ecbe" d="M 136.5,243.5 C 133.848,248.809 130.181,253.142 125.5,256.5C 125.351,255.448 125.517,254.448 126,253.5C 129.043,250.957 131.543,247.957 133.5,244.5C 134.325,243.614 135.325,243.281 136.5,243.5 Z"/></g>
<g><path style="opacity:0.18" fill="#ece4cd" d="M 149.5,266.5 C 159.161,265.834 168.994,265.5 179,265.5C 216.668,265.931 254.168,266.597 291.5,267.5C 244.165,267.386 196.831,267.053 149.5,266.5 Z"/></g>
<g><path style="opacity:0.509" fill="#decb93" d="M 149.5,266.5 C 196.831,267.053 244.165,267.386 291.5,267.5C 295.143,270.149 298.143,273.482 300.5,277.5C 300.5,295.5 300.5,313.5 300.5,331.5C 300.167,331.5 299.833,331.5 299.5,331.5C 299.5,314.167 299.5,296.833 299.5,279.5C 299.631,278.761 299.464,278.094 299,277.5C 296.816,275.712 294.649,274.046 292.5,272.5C 291.766,271.292 291.433,269.959 291.5,268.5C 268.5,268.5 245.5,268.5 222.5,268.5C 208.167,268.5 193.833,268.5 179.5,268.5C 169.856,267.473 160.189,267.307 150.5,268C 147.923,270.105 145.589,272.271 143.5,274.5C 144.37,270.966 146.37,268.299 149.5,266.5 Z"/></g>
<g><path style="opacity:0.129" fill="#e0d4b4" d="M 72.5,233.5 C 72.8057,261.822 73.8057,289.822 75.5,317.5C 74.7455,319.466 73.5788,319.8 72,318.5C 70.9724,291.176 70.4724,263.842 70.5,236.5C 71.1667,235.5 71.8333,234.5 72.5,233.5 Z"/></g>
<g><path style="opacity:1" fill="#f8e289" d="M 179.5,268.5 C 179.389,269.117 179.056,269.617 178.5,270C 180.407,271.756 182.407,273.256 184.5,274.5C 179.821,274.334 175.155,274.501 170.5,275C 166.831,276.093 163.164,276.926 159.5,277.5C 154.5,277.5 149.5,277.5 144.5,277.5C 142.512,278.745 140.512,280.078 138.5,281.5C 138.969,278.357 140.636,276.023 143.5,274.5C 145.589,272.271 147.923,270.105 150.5,268C 160.189,267.307 169.856,267.473 179.5,268.5 Z"/></g>
<g><path style="opacity:1" fill="#dabb5a" d="M 179.5,268.5 C 193.833,268.5 208.167,268.5 222.5,268.5C 221.048,269.302 219.382,269.802 217.5,270C 219.058,270.21 220.391,270.71 221.5,271.5C 215.322,273.292 208.989,274.292 202.5,274.5C 196.5,274.5 190.5,274.5 184.5,274.5C 182.407,273.256 180.407,271.756 178.5,270C 179.056,269.617 179.389,269.117 179.5,268.5 Z"/></g>
<g><path style="opacity:1" fill="#bf9f37" d="M 222.5,268.5 C 245.5,268.5 268.5,268.5 291.5,268.5C 291.433,269.959 291.766,271.292 292.5,272.5C 268.827,272.534 245.16,272.201 221.5,271.5C 220.391,270.71 219.058,270.21 217.5,270C 219.382,269.802 221.048,269.302 222.5,268.5 Z"/></g>
<g><path style="opacity:0.392" fill="#f1dfa3" d="M 125.5,256.5 C 125.649,257.552 125.483,258.552 125,259.5C 120.62,264.211 116.62,269.211 113,274.5C 112.329,275.252 111.496,275.586 110.5,275.5C 110.971,273.421 111.637,271.421 112.5,269.5C 114.104,268.713 114.771,267.38 114.5,265.5C 117.702,265.463 119.368,263.797 119.5,260.5C 121.488,259.255 123.488,257.922 125.5,256.5 Z"/></g>
<g><path style="opacity:1" fill="#e5c34b" d="M 159.5,277.5 C 163.164,276.926 166.831,276.093 170.5,275C 175.155,274.501 179.821,274.334 184.5,274.5C 190.5,274.5 196.5,274.5 202.5,274.5C 208.072,275.87 213.739,275.703 219.5,274C 229.828,273.5 240.161,273.334 250.5,273.5C 250.5,274.833 250.5,276.167 250.5,277.5C 220.167,277.5 189.833,277.5 159.5,277.5 Z"/></g>
<g><path style="opacity:1" fill="#d2af33" d="M 221.5,271.5 C 245.16,272.201 268.827,272.534 292.5,272.5C 294.649,274.046 296.816,275.712 299,277.5C 299.464,278.094 299.631,278.761 299.5,279.5C 247.736,278.838 196.069,278.171 144.5,277.5C 149.5,277.5 154.5,277.5 159.5,277.5C 189.833,277.5 220.167,277.5 250.5,277.5C 250.5,276.167 250.5,274.833 250.5,273.5C 240.161,273.334 229.828,273.5 219.5,274C 213.739,275.703 208.072,275.87 202.5,274.5C 208.989,274.292 215.322,273.292 221.5,271.5 Z"/></g>
<g><path style="opacity:0.051" fill="#fae9b7" d="M 110.5,275.5 C 109.567,278.37 107.9,280.704 105.5,282.5C 105.615,279.053 107.281,276.72 110.5,275.5 Z"/></g>
<g><path style="opacity:1" fill="#aa8905" d="M 144.5,277.5 C 196.069,278.171 247.736,278.838 299.5,279.5C 299.5,296.833 299.5,314.167 299.5,331.5C 284.598,332.823 269.598,332.823 254.5,331.5C 254.5,330.833 254.5,330.167 254.5,329.5C 204.999,328.39 155.665,327.057 106.5,325.5C 108.444,322.05 110.61,318.716 113,315.5C 113.49,314.207 113.657,312.873 113.5,311.5C 114.675,311.719 115.675,311.386 116.5,310.5C 119.123,307.375 121.956,304.375 125,301.5C 126.467,296.884 128.633,292.884 131.5,289.5C 134.59,287.416 136.923,284.749 138.5,281.5C 140.512,280.078 142.512,278.745 144.5,277.5 Z"/></g>
<g><path style="opacity:0.984" fill="#d9b938" d="M 112.5,269.5 C 111.637,271.421 110.971,273.421 110.5,275.5C 107.281,276.72 105.615,279.053 105.5,282.5C 105.5,283.167 105.167,283.5 104.5,283.5C 102.867,284.945 101.034,286.279 99,287.5C 98.5172,288.448 98.3505,289.448 98.5,290.5C 97.609,291.11 96.609,291.443 95.5,291.5C 95.3505,290.448 95.5172,289.448 96,288.5C 98.7666,286.401 100.767,283.734 102,280.5C 105.405,276.598 108.905,272.932 112.5,269.5 Z"/></g>
<g><path style="opacity:0.204" fill="#dcd5bc" d="M 138.5,281.5 C 136.923,284.749 134.59,287.416 131.5,289.5C 131.539,288.417 131.873,287.417 132.5,286.5C 134.31,284.469 136.31,282.802 138.5,281.5 Z"/></g>
<g><path style="opacity:0.043" fill="#faecc5" d="M 104.5,283.5 C 103.19,286.473 101.19,288.807 98.5,290.5C 98.3505,289.448 98.5172,288.448 99,287.5C 101.034,286.279 102.867,284.945 104.5,283.5 Z"/></g>
<g><path style="opacity:0.11" fill="#ebe3d0" d="M 300.5,277.5 C 301.935,284.615 302.602,291.948 302.5,299.5C 302.281,310.35 301.615,321.017 300.5,331.5C 300.5,313.5 300.5,295.5 300.5,277.5 Z"/></g>
<g><path style="opacity:0.737" fill="#d2c499" d="M 131.5,289.5 C 128.633,292.884 126.467,296.884 125,301.5C 121.956,304.375 119.123,307.375 116.5,310.5C 115.675,311.386 114.675,311.719 113.5,311.5C 117.648,305.892 121.815,300.226 126,294.5C 127.704,292.627 129.537,290.96 131.5,289.5 Z"/></g>
<g><path style="opacity:0.392" fill="#f2e1a9" d="M 98.5,290.5 C 94.7307,297.954 89.3974,304.287 82.5,309.5C 84.1096,304.93 86.9429,301.263 91,298.5C 92.1723,295.871 93.6723,293.538 95.5,291.5C 96.609,291.443 97.609,291.11 98.5,290.5 Z"/></g>
<g><path style="opacity:0.039" fill="#ede4bc" d="M 81.5,310.5 C 80.1889,312.336 79.0222,314.336 78,316.5C 77.3292,317.252 76.4959,317.586 75.5,317.5C 76.6842,315.229 77.6842,312.895 78.5,310.5C 79.5,310.5 80.5,310.5 81.5,310.5 Z"/></g>
<g><path style="opacity:0.259" fill="#ded5b6" d="M 113.5,311.5 C 113.657,312.873 113.49,314.207 113,315.5C 110.61,318.716 108.444,322.05 106.5,325.5C 105.314,326.705 105.314,328.039 106.5,329.5C 104.654,329.778 103.32,329.111 102.5,327.5C 106.189,322.101 109.856,316.767 113.5,311.5 Z"/></g>
<g><path style="opacity:0.728" fill="#bea749" d="M 106.5,325.5 C 155.665,327.057 204.999,328.39 254.5,329.5C 241.5,329.5 228.5,329.5 215.5,329.5C 203.167,329.5 190.833,329.5 178.5,329.5C 154.5,329.5 130.5,329.5 106.5,329.5C 105.314,328.039 105.314,326.705 106.5,325.5 Z"/></g>
<g><path style="opacity:0.06" fill="#eaeaea" d="M 178.5,329.5 C 190.833,329.5 203.167,329.5 215.5,329.5C 215.5,330.167 215.5,330.833 215.5,331.5C 203.495,331.667 191.495,331.5 179.5,331C 178.944,330.617 178.611,330.117 178.5,329.5 Z"/></g>
<g><path style="opacity:0.22" fill="#e1d6c3" d="M 215.5,329.5 C 228.5,329.5 241.5,329.5 254.5,329.5C 254.5,330.167 254.5,330.833 254.5,331.5C 241.5,331.5 228.5,331.5 215.5,331.5C 215.5,330.833 215.5,330.167 215.5,329.5 Z"/></g>
</svg>
