<?xml version="1.0" encoding="UTF-8"?>
<!DOCTYPE svg PUBLIC "-//W3C//DTD SVG 1.1//EN" "http://www.w3.org/Graphics/SVG/1.1/DTD/svg11.dtd">
<svg xmlns="http://www.w3.org/2000/svg" version="1.1" width="109px" height="93px" style="shape-rendering:geometricPrecision; text-rendering:geometricPrecision; image-rendering:optimizeQuality; fill-rule:evenodd; clip-rule:evenodd" xmlns:xlink="http://www.w3.org/1999/xlink">
<g><path style="opacity:1" fill="#3b2c16" d="M 18.5,12.5 C 17.0241,12.8885 15.6908,12.8885 14.5,12.5C 13.8571,10.9236 12.8571,9.59026 11.5,8.5C 10.218,7.29177 10.218,5.95844 11.5,4.5C 13.8508,7.23873 16.1841,9.9054 18.5,12.5 Z"/></g>
<g><path style="opacity:1" fill="#3b280f" d="M 92.5,9.5 C 91.194,11.4727 89.5273,13.1394 87.5,14.5C 87.1667,13.8333 86.8333,13.1667 86.5,12.5C 88.6664,10.1633 90.6664,7.66327 92.5,5C 93.3317,4.31232 93.9984,4.47899 94.5,5.5C 94.0057,7.02552 93.339,8.35885 92.5,9.5 Z"/></g>
<g><path style="opacity:0.6" fill="#100700" d="M 11.5,8.5 C 12.8571,9.59026 13.8571,10.9236 14.5,12.5C 16.1667,14.5 17.8333,16.5 19.5,18.5C 17.9826,18.4894 16.8159,17.8228 16,16.5C 15.6012,16.7284 15.4346,17.0618 15.5,17.5C 13.0257,15.1024 11.6924,12.1024 11.5,8.5 Z"/></g>
<g><path style="opacity:0.647" fill="#2b1902" d="M 92.5,9.5 C 92.278,12.5042 91.278,15.1708 89.5,17.5C 87.3146,17.7036 85.3146,18.3702 83.5,19.5C 84.8333,17.8333 86.1667,16.1667 87.5,14.5C 89.5273,13.1394 91.194,11.4727 92.5,9.5 Z"/></g>
<g><path style="opacity:1" fill="#8a671e" d="M 18.5,12.5 C 19.5,12.8333 20.1667,13.5 20.5,14.5C 20.4677,16.6188 21.4677,17.9522 23.5,18.5C 23.5,19.1667 23.1667,19.5 22.5,19.5C 21.609,18.8902 20.609,18.5569 19.5,18.5C 17.8333,16.5 16.1667,14.5 14.5,12.5C 15.6908,12.8885 17.0241,12.8885 18.5,12.5 Z"/></g>
<g><path style="opacity:0.745" fill="#38230d" d="M 89.5,17.5 C 88.8973,18.6348 88.5639,19.6348 88.5,20.5C 87.8333,20.5 87.1667,20.5 86.5,20.5C 83.9236,22.1166 82.9236,21.7833 83.5,19.5C 85.3146,18.3702 87.3146,17.7036 89.5,17.5 Z"/></g>
<g><path style="opacity:0.827" fill="#2d1d08" d="M 19.5,18.5 C 20.609,18.5569 21.609,18.8902 22.5,19.5C 25.0094,20.9213 27.3428,22.5879 29.5,24.5C 28.5084,24.3284 27.8417,24.6618 27.5,25.5C 26.2921,24.7659 24.9587,24.4326 23.5,24.5C 22.5637,23.0256 21.2303,22.0256 19.5,21.5C 18.5,20.8333 17.5,20.1667 16.5,19.5C 16.1667,18.8333 15.8333,18.1667 15.5,17.5C 15.4346,17.0618 15.6012,16.7284 16,16.5C 16.8159,17.8228 17.9826,18.4894 19.5,18.5 Z"/></g>
<g><path style="opacity:0.824" fill="#997429" d="M 84.5,14.5 C 81.6431,18.0957 77.9764,20.429 73.5,21.5C 76.894,18.7795 80.5606,16.4462 84.5,14.5 Z"/></g>
<g><path style="opacity:1" fill="#695020" d="M 86.5,12.5 C 86.8333,13.1667 87.1667,13.8333 87.5,14.5C 86.1667,16.1667 84.8333,17.8333 83.5,19.5C 80.6689,20.0787 78.3356,21.412 76.5,23.5C 75.391,23.5569 74.391,23.8902 73.5,24.5C 73.5,23.5 73.5,22.5 73.5,21.5C 77.9764,20.429 81.6431,18.0957 84.5,14.5C 84.8333,13.5 85.5,12.8333 86.5,12.5 Z"/></g>
<g><path style="opacity:0.851" fill="#e4d69e" d="M 20.5,14.5 C 26.9046,18.8977 33.5713,22.8977 40.5,26.5C 40.631,27.2389 40.4643,27.9056 40,28.5C 34.7217,24.7786 29.2217,21.4452 23.5,18.5C 21.4677,17.9522 20.4677,16.6188 20.5,14.5 Z"/></g>
<g><path style="opacity:0.652" fill="#251704" d="M 83.5,19.5 C 82.9236,21.7833 83.9236,22.1166 86.5,20.5C 85.9653,22.4456 84.632,23.4456 82.5,23.5C 82.1583,24.3382 81.4916,24.6716 80.5,24.5C 80.5,24.1667 80.5,23.8333 80.5,23.5C 79.3684,22.6457 78.035,22.6457 76.5,23.5C 78.3356,21.412 80.6689,20.0787 83.5,19.5 Z"/></g>
<g><path style="opacity:0.059" fill="#e3dfcf" d="M 19.5,21.5 C 21.2303,22.0256 22.5637,23.0256 23.5,24.5C 21.368,24.4456 20.0347,23.4456 19.5,21.5 Z"/></g>
<g><path style="opacity:1" fill="#43321c" d="M 16.5,19.5 C 17.5,20.1667 18.5,20.8333 19.5,21.5C 20.0347,23.4456 21.368,24.4456 23.5,24.5C 23.8333,25.1667 24.1667,25.8333 24.5,26.5C 23.8333,26.5 23.1667,26.5 22.5,26.5C 21.5416,26.0472 20.7083,25.3805 20,24.5C 19.5357,25.0944 19.369,25.7611 19.5,26.5C 17.6944,24.9106 16.3611,22.9106 15.5,20.5C 15.6236,19.8933 15.9569,19.56 16.5,19.5 Z"/></g>
<g><path style="opacity:0.449" fill="#2c1b04" d="M 80.5,23.5 C 79.1667,23.8333 79.1667,24.1667 80.5,24.5C 80.5,25.1667 80.1667,25.5 79.5,25.5C 77.9505,26.4408 76.2838,27.1075 74.5,27.5C 74.8333,26.8333 75.1667,26.1667 75.5,25.5C 75.8333,24.8333 76.1667,24.1667 76.5,23.5C 78.035,22.6457 79.3684,22.6457 80.5,23.5 Z"/></g>
<g><path style="opacity:1" fill="#604a1d" d="M 23.5,18.5 C 29.2217,21.4452 34.7217,24.7786 40,28.5C 40.4643,27.9056 40.631,27.2389 40.5,26.5C 41.1667,26.5 41.5,26.8333 41.5,27.5C 41.6495,28.552 41.4828,29.552 41,30.5C 39.6703,29.4178 38.1703,28.7512 36.5,28.5C 36.1583,27.6618 35.4916,27.3284 34.5,27.5C 33.3406,25.7497 31.674,24.7497 29.5,24.5C 27.3428,22.5879 25.0094,20.9213 22.5,19.5C 23.1667,19.5 23.5,19.1667 23.5,18.5 Z"/></g>
<g><path style="opacity:0.655" fill="#d0c160" d="M 92.5,23.5 C 92.5,23.8333 92.5,24.1667 92.5,24.5C 89.4867,24.1072 86.8201,24.7739 84.5,26.5C 83.2921,27.2341 81.9587,27.5674 80.5,27.5C 83.6866,24.0747 87.6866,22.7413 92.5,23.5 Z"/></g>
<g><path style="opacity:1" fill="#765618" d="M 73.5,21.5 C 73.5,22.5 73.5,23.5 73.5,24.5C 70.8068,25.8466 68.1401,27.1799 65.5,28.5C 64.5041,28.4142 63.6708,28.7476 63,29.5C 62.5357,28.9056 62.369,28.2389 62.5,27.5C 66.0337,25.2336 69.7004,23.2336 73.5,21.5 Z"/></g>
<g><path style="opacity:1" fill="#725429" d="M 86.5,20.5 C 87.1667,20.5 87.8333,20.5 88.5,20.5C 88.5,20.8333 88.5,21.1667 88.5,21.5C 89.8333,22.1667 91.1667,22.8333 92.5,23.5C 87.6866,22.7413 83.6866,24.0747 80.5,27.5C 80.1667,27.5 79.8333,27.5 79.5,27.5C 79.5,26.8333 79.5,26.1667 79.5,25.5C 80.1667,25.5 80.5,25.1667 80.5,24.5C 81.4916,24.6716 82.1583,24.3382 82.5,23.5C 84.632,23.4456 85.9653,22.4456 86.5,20.5 Z"/></g>
<g><path style="opacity:1" fill="#edd734" d="M 92.5,24.5 C 92.5,25.5 92.5,26.5 92.5,27.5C 89.6146,27.8064 86.9479,27.4731 84.5,26.5C 86.8201,24.7739 89.4867,24.1072 92.5,24.5 Z"/></g>
<g><path style="opacity:1" fill="#856b37" d="M 88.5,21.5 C 91.3878,20.9898 93.7211,21.6565 95.5,23.5C 94.5489,24.9187 94.2155,26.5853 94.5,28.5C 93.8333,28.5 93.1667,28.5 92.5,28.5C 92.5,28.1667 92.5,27.8333 92.5,27.5C 92.5,26.5 92.5,25.5 92.5,24.5C 92.5,24.1667 92.5,23.8333 92.5,23.5C 91.1667,22.8333 89.8333,22.1667 88.5,21.5 Z"/></g>
<g><path style="opacity:1" fill="#a28e6f" d="M 23.5,24.5 C 24.9587,24.4326 26.2921,24.7659 27.5,25.5C 28.4293,26.3149 29.4293,27.1482 30.5,28C 29.9056,28.4643 29.2389,28.631 28.5,28.5C 26.847,28.3404 25.5137,27.6737 24.5,26.5C 24.1667,25.8333 23.8333,25.1667 23.5,24.5 Z"/></g>
<g><path style="opacity:0.588" fill="#352007" d="M 29.5,24.5 C 31.674,24.7497 33.3406,25.7497 34.5,27.5C 33.5084,27.3284 32.8417,27.6618 32.5,28.5C 32.1583,29.3382 31.4916,29.6716 30.5,29.5C 29.5084,29.6716 28.8417,29.3382 28.5,28.5C 29.2389,28.631 29.9056,28.4643 30.5,28C 29.4293,27.1482 28.4293,26.3149 27.5,25.5C 27.8417,24.6618 28.5084,24.3284 29.5,24.5 Z"/></g>
<g><path style="opacity:1" fill="#c3ae3c" d="M 22.5,26.5 C 23.1667,26.5 23.8333,26.5 24.5,26.5C 25.5137,27.6737 26.847,28.3404 28.5,28.5C 28.8417,29.3382 29.5084,29.6716 30.5,29.5C 30.5,29.8333 30.5,30.1667 30.5,30.5C 26.7396,31.2264 24.073,29.8931 22.5,26.5 Z"/></g>
<g><path style="opacity:0.235" fill="#312514" d="M 51.5,24.5 C 52.6016,26.0919 51.935,26.9252 49.5,27C 50.7911,28.2917 50.7911,29.4583 49.5,30.5C 48.713,28.8958 47.3797,28.2291 45.5,28.5C 45.5,27.5 45.5,26.5 45.5,25.5C 47.5,25.1667 49.5,24.8333 51.5,24.5 Z"/></g>
<g><path style="opacity:1" fill="#9e885d" d="M 51.5,24.5 C 52.791,24.2627 53.791,24.596 54.5,25.5C 54.5,26.1667 54.5,26.8333 54.5,27.5C 53.8501,27.8039 53.1835,28.1373 52.5,28.5C 51.8319,30.9688 51.1653,33.3021 50.5,35.5C 50.1667,35.5 49.8333,35.5 49.5,35.5C 49.6716,34.5084 49.3382,33.8417 48.5,33.5C 48.5569,32.391 48.8902,31.391 49.5,30.5C 50.7911,29.4583 50.7911,28.2917 49.5,27C 51.935,26.9252 52.6016,26.0919 51.5,24.5 Z"/></g>
<g><path style="opacity:1" fill="#baa839" d="M 84.5,26.5 C 86.9479,27.4731 89.6146,27.8064 92.5,27.5C 92.5,27.8333 92.5,28.1667 92.5,28.5C 86.2799,28.1032 80.2799,28.7699 74.5,30.5C 75.9649,29.2632 77.6316,28.2632 79.5,27.5C 79.8333,27.5 80.1667,27.5 80.5,27.5C 81.9587,27.5674 83.2921,27.2341 84.5,26.5 Z"/></g>
<g><path style="opacity:0.8" fill="#392508" d="M 32.5,28.5 C 32.8417,27.6618 33.5084,27.3284 34.5,27.5C 35.4916,27.3284 36.1583,27.6618 36.5,28.5C 37.1667,29.5 37.8333,30.5 38.5,31.5C 37.8333,31.5 37.5,31.8333 37.5,32.5C 35.9729,31.0686 34.3062,29.7352 32.5,28.5 Z"/></g>
<g><path style="opacity:1" fill="#e9dcc8" d="M 56.5,27.5 C 57.3382,27.8417 57.6716,28.5084 57.5,29.5C 55.5759,29.2893 55.2426,28.6226 56.5,27.5 Z"/></g>
<g><path style="opacity:0.839" fill="#3f2a0e" d="M 62.5,27.5 C 62.369,28.2389 62.5357,28.9056 63,29.5C 63.6708,28.7476 64.5041,28.4142 65.5,28.5C 64.4937,29.3957 64.4937,30.0623 65.5,30.5C 64.8333,31.1667 64.1667,31.8333 63.5,32.5C 62.9694,31.2046 61.6361,30.5379 59.5,30.5C 60.1667,29.1667 61.1667,28.1667 62.5,27.5 Z"/></g>
<g><path style="opacity:0.376" fill="#372102" d="M 75.5,25.5 C 75.1667,26.1667 74.8333,26.8333 74.5,27.5C 73.4097,28.8571 72.0764,29.8571 70.5,30.5C 69.8333,30.1667 69.1667,29.8333 68.5,29.5C 70.3356,27.412 72.6689,26.0787 75.5,25.5 Z"/></g>
<g><path style="opacity:1" fill="#6d4b16" d="M 79.5,25.5 C 79.5,26.1667 79.5,26.8333 79.5,27.5C 77.6316,28.2632 75.9649,29.2632 74.5,30.5C 73.8333,30.5 73.1667,30.5 72.5,30.5C 71.8333,30.5 71.1667,30.5 70.5,30.5C 72.0764,29.8571 73.4097,28.8571 74.5,27.5C 76.2838,27.1075 77.9505,26.4408 79.5,25.5 Z"/></g>
<g><path style="opacity:0.847" fill="#2c1c02" d="M 22.5,26.5 C 24.073,29.8931 26.7396,31.2264 30.5,30.5C 33.0972,30.7208 33.0972,31.2208 30.5,32C 31.7375,32.2321 32.7375,32.7321 33.5,33.5C 31.1667,33.5 28.8333,33.5 26.5,33.5C 25.609,32.8902 24.609,32.5569 23.5,32.5C 21.1925,31.2367 19.8592,29.2367 19.5,26.5C 19.369,25.7611 19.5357,25.0944 20,24.5C 20.7083,25.3805 21.5416,26.0472 22.5,26.5 Z"/></g>
<g><path style="opacity:1" fill="#625026" d="M 54.5,25.5 C 55.8333,25.5 56.5,26.1667 56.5,27.5C 55.2426,28.6226 55.5759,29.2893 57.5,29.5C 57.5,30.1667 57.5,30.8333 57.5,31.5C 56.1667,31.5 55.5,32.1667 55.5,33.5C 54.5386,31.7354 54.2053,29.7354 54.5,27.5C 54.5,26.8333 54.5,26.1667 54.5,25.5 Z"/></g>
<g><path style="opacity:1" fill="#281905" d="M 76.5,23.5 C 76.1667,24.1667 75.8333,24.8333 75.5,25.5C 72.6689,26.0787 70.3356,27.412 68.5,29.5C 67.609,30.1098 66.609,30.4431 65.5,30.5C 64.4937,30.0623 64.4937,29.3957 65.5,28.5C 68.1401,27.1799 70.8068,25.8466 73.5,24.5C 74.391,23.8902 75.391,23.5569 76.5,23.5 Z"/></g>
<g><path style="opacity:0.936" fill="#2b1c07" d="M 92.5,28.5 C 93.1667,28.5 93.8333,28.5 94.5,28.5C 90.7675,30.1307 86.7675,31.1307 82.5,31.5C 81.5,31.5 80.5,31.5 79.5,31.5C 78.0222,31.238 76.6888,31.5713 75.5,32.5C 76.9023,33.8425 76.5689,34.6758 74.5,35C 73.2068,35.49 71.8734,35.6567 70.5,35.5C 69.8333,35.5 69.1667,35.5 68.5,35.5C 69.2625,34.7321 70.2625,34.2321 71.5,34C 69.6183,33.8019 67.9516,33.3019 66.5,32.5C 68.7857,32.405 70.7857,31.7384 72.5,30.5C 73.1667,30.5 73.8333,30.5 74.5,30.5C 80.2799,28.7699 86.2799,28.1032 92.5,28.5 Z"/></g>
<g><path style="opacity:1" fill="#211403" d="M 41.5,27.5 C 42.8333,28.1667 43.8333,29.1667 44.5,30.5C 43.6618,30.8417 43.3284,31.5084 43.5,32.5C 42.5416,32.9528 41.7083,33.6195 41,34.5C 40.6232,33.0577 39.7899,32.0577 38.5,31.5C 37.8333,30.5 37.1667,29.5 36.5,28.5C 38.1703,28.7512 39.6703,29.4178 41,30.5C 41.4828,29.552 41.6495,28.552 41.5,27.5 Z"/></g>
<g><path style="opacity:0.271" fill="#6a4e1f" d="M 68.5,29.5 C 69.1667,29.8333 69.8333,30.1667 70.5,30.5C 71.1667,30.5 71.8333,30.5 72.5,30.5C 70.7857,31.7384 68.7857,32.405 66.5,32.5C 65.3478,33.625 64.3478,33.625 63.5,32.5C 64.1667,31.8333 64.8333,31.1667 65.5,30.5C 66.609,30.4431 67.609,30.1098 68.5,29.5 Z"/></g>
<g><path style="opacity:0.106" fill="#2c1301" d="M 95.5,23.5 C 95.5,26.1667 95.5,28.8333 95.5,31.5C 91.1667,31.5 86.8333,31.5 82.5,31.5C 86.7675,31.1307 90.7675,30.1307 94.5,28.5C 94.2155,26.5853 94.5489,24.9187 95.5,23.5 Z"/></g>
<g><path style="opacity:0.988" fill="#2a1903" d="M 32.5,28.5 C 34.3062,29.7352 35.9729,31.0686 37.5,32.5C 38.5,32.8333 39.1667,33.5 39.5,34.5C 38.1667,34.1667 36.8333,33.8333 35.5,33.5C 34.8333,33.5 34.1667,33.5 33.5,33.5C 32.7375,32.7321 31.7375,32.2321 30.5,32C 33.0972,31.2208 33.0972,30.7208 30.5,30.5C 30.5,30.1667 30.5,29.8333 30.5,29.5C 31.4916,29.6716 32.1583,29.3382 32.5,28.5 Z"/></g>
<g><path style="opacity:0.376" fill="#f3e8d8" d="M 44.5,30.5 C 45.1098,31.391 45.4431,32.391 45.5,33.5C 45.5,34.1667 45.1667,34.5 44.5,34.5C 44.1667,33.8333 43.8333,33.1667 43.5,32.5C 43.3284,31.5084 43.6618,30.8417 44.5,30.5 Z"/></g>
<g><path style="opacity:0.353" fill="#e7dacd" d="M 57.5,31.5 C 57.5,32.1667 57.5,32.8333 57.5,33.5C 56.8333,33.5 56.1667,33.5 55.5,33.5C 55.5,32.1667 56.1667,31.5 57.5,31.5 Z"/></g>
<g><path style="opacity:0.755" fill="#52401f" d="M 79.5,31.5 C 79.5,31.8333 79.5,32.1667 79.5,32.5C 79.1667,32.5 78.8333,32.5 78.5,32.5C 77.1667,32.8333 77.1667,33.1667 78.5,33.5C 79.4916,33.3284 80.1583,33.6618 80.5,34.5C 80.1667,34.5 79.8333,34.5 79.5,34.5C 76.5738,35.6976 73.5738,36.6976 70.5,37.5C 70.5,36.8333 70.5,36.1667 70.5,35.5C 71.8734,35.6567 73.2068,35.49 74.5,35C 76.5689,34.6758 76.9023,33.8425 75.5,32.5C 76.6888,31.5713 78.0222,31.238 79.5,31.5 Z"/></g>
<g><path style="opacity:1" fill="#e5d3a9" d="M 59.5,31.5 C 60.3382,31.8417 60.6716,32.5084 60.5,33.5C 59.8333,33.5 59.1667,33.5 58.5,33.5C 58.3284,32.5084 58.6618,31.8417 59.5,31.5 Z"/></g>
<g><path style="opacity:0.863" fill="#5a401a" d="M 59.5,31.5 C 59.5,31.1667 59.5,30.8333 59.5,30.5C 61.6361,30.5379 62.9694,31.2046 63.5,32.5C 64.3478,33.625 65.3478,33.625 66.5,32.5C 67.9516,33.3019 69.6183,33.8019 71.5,34C 70.2625,34.2321 69.2625,34.7321 68.5,35.5C 66.4471,35.4021 64.7804,36.0687 63.5,37.5C 62.9779,35.7809 61.9779,34.4475 60.5,33.5C 60.6716,32.5084 60.3382,31.8417 59.5,31.5 Z"/></g>
<g><path style="opacity:0.016" fill="#c8aa7f" d="M 78.5,33.5 C 78.5,33.1667 78.5,32.8333 78.5,32.5C 78.8333,32.5 79.1667,32.5 79.5,32.5C 81.4241,32.7107 81.7574,33.3774 80.5,34.5C 80.1583,33.6618 79.4916,33.3284 78.5,33.5 Z"/></g>
<g><path style="opacity:0.992" fill="#51360a" d="M 26.5,33.5 C 28.8333,33.5 31.1667,33.5 33.5,33.5C 34.1667,33.5 34.8333,33.5 35.5,33.5C 34.1979,35.0276 32.5313,36.0276 30.5,36.5C 30.1667,36.5 29.8333,36.5 29.5,36.5C 28.0998,35.8999 27.0998,34.8999 26.5,33.5 Z"/></g>
<g><path style="opacity:0.635" fill="#7d5f2c" d="M 35.5,33.5 C 36.8333,33.8333 38.1667,34.1667 39.5,34.5C 39.5,35.1667 39.5,35.8333 39.5,36.5C 36.3537,36.8821 33.3537,36.8821 30.5,36.5C 32.5313,36.0276 34.1979,35.0276 35.5,33.5 Z"/></g>
<g><path style="opacity:1" fill="#e4d35b" d="M 54.5,27.5 C 54.2053,29.7354 54.5386,31.7354 55.5,33.5C 55.5,34.5 55.5,35.5 55.5,36.5C 53.8561,36.2865 52.3561,36.6198 51,37.5C 50.5357,36.9056 50.369,36.2389 50.5,35.5C 51.1653,33.3021 51.8319,30.9688 52.5,28.5C 53.1835,28.1373 53.8501,27.8039 54.5,27.5 Z"/></g>
<g><path style="opacity:0.755" fill="#47341d" d="M 23.5,32.5 C 24.609,32.5569 25.609,32.8902 26.5,33.5C 27.0998,34.8999 28.0998,35.8999 29.5,36.5C 29.5,37.1667 29.1667,37.5 28.5,37.5C 26.0948,36.6019 24.0948,35.1019 22.5,33C 22.7284,32.6012 23.0618,32.4346 23.5,32.5 Z"/></g>
<g><path style="opacity:1" fill="#8f7649" d="M 37.5,32.5 C 37.5,31.8333 37.8333,31.5 38.5,31.5C 39.7899,32.0577 40.6232,33.0577 41,34.5C 41.7083,33.6195 42.5416,32.9528 43.5,32.5C 43.8333,33.1667 44.1667,33.8333 44.5,34.5C 44.5,34.8333 44.5,35.1667 44.5,35.5C 42.0582,35.1192 41.3915,35.7859 42.5,37.5C 42.1445,38.5223 41.4778,39.189 40.5,39.5C 39.3478,40.625 38.3478,40.625 37.5,39.5C 39.3497,38.7582 40.0164,37.7582 39.5,36.5C 39.5,35.8333 39.5,35.1667 39.5,34.5C 39.1667,33.5 38.5,32.8333 37.5,32.5 Z"/></g>
<g><path style="opacity:1" fill="#684f27" d="M 45.5,33.5 C 46.5,34.8333 47.5,34.8333 48.5,33.5C 49.3382,33.8417 49.6716,34.5084 49.5,35.5C 49.1667,36.1667 48.8333,36.8333 48.5,37.5C 48.1667,37.5 47.8333,37.5 47.5,37.5C 46.5,36.8333 45.5,36.1667 44.5,35.5C 44.5,35.1667 44.5,34.8333 44.5,34.5C 45.1667,34.5 45.5,34.1667 45.5,33.5 Z"/></g>
<g><path style="opacity:0.855" fill="#7d6536" d="M 55.5,33.5 C 56.1667,33.5 56.8333,33.5 57.5,33.5C 57.8333,33.5 58.1667,33.5 58.5,33.5C 59.1667,33.5 59.8333,33.5 60.5,33.5C 61.9779,34.4475 62.9779,35.7809 63.5,37.5C 64.1667,37.5 64.5,37.8333 64.5,38.5C 63.8333,38.5 63.5,38.8333 63.5,39.5C 62.8333,39.1667 62.1667,38.8333 61.5,38.5C 61.1796,34.9159 60.0129,34.2492 58,36.5C 57.6667,35.8333 57.3333,35.1667 57,34.5C 56.7216,35.4158 56.2216,36.0825 55.5,36.5C 55.5,35.5 55.5,34.5 55.5,33.5 Z"/></g>
<g><path style="opacity:1" fill="#e5d565" d="M 49.5,35.5 C 49.8333,35.5 50.1667,35.5 50.5,35.5C 50.369,36.2389 50.5357,36.9056 51,37.5C 52.3561,36.6198 53.8561,36.2865 55.5,36.5C 55.5,37.1667 55.5,37.8333 55.5,38.5C 54.5,40.5 53.5,42.5 52.5,44.5C 51.1667,42.1667 49.8333,39.8333 48.5,37.5C 48.8333,36.8333 49.1667,36.1667 49.5,35.5 Z"/></g>
<g><path style="opacity:0.714" fill="#2f1d04" d="M 29.5,36.5 C 29.8333,36.5 30.1667,36.5 30.5,36.5C 33.3537,36.8821 36.3537,36.8821 39.5,36.5C 40.0164,37.7582 39.3497,38.7582 37.5,39.5C 37.1667,38.1667 36.8333,38.1667 36.5,39.5C 33.2157,41.1862 30.549,40.5196 28.5,37.5C 29.1667,37.5 29.5,37.1667 29.5,36.5 Z"/></g>
<g><path style="opacity:0.807" fill="#38250e" d="M 68.5,35.5 C 69.1667,35.5 69.8333,35.5 70.5,35.5C 70.5,36.1667 70.5,36.8333 70.5,37.5C 71.5,38.1667 72.5,38.8333 73.5,39.5C 72.8333,39.5 72.5,39.8333 72.5,40.5C 71.8333,40.5 71.1667,40.5 70.5,40.5C 69.791,39.596 68.791,39.2627 67.5,39.5C 67.1667,38.1667 66.8333,38.1667 66.5,39.5C 65.8333,39.1667 65.1667,38.8333 64.5,38.5C 64.5,37.8333 64.1667,37.5 63.5,37.5C 64.7804,36.0687 66.4471,35.4021 68.5,35.5 Z"/></g>
<g><path style="opacity:0.576" fill="#2b1900" d="M 79.5,34.5 C 78.1092,36.8903 76.1092,38.5569 73.5,39.5C 72.5,38.8333 71.5,38.1667 70.5,37.5C 73.5738,36.6976 76.5738,35.6976 79.5,34.5 Z"/></g>
<g><path style="opacity:0.365" fill="#382510" d="M 44.5,35.5 C 45.5,36.1667 46.5,36.8333 47.5,37.5C 46.596,38.209 46.2627,39.209 46.5,40.5C 44.7072,36.5466 43.3738,36.8799 42.5,41.5C 41.8333,41.5 41.5,41.8333 41.5,42.5C 41.5,42.8333 41.5,43.1667 41.5,43.5C 40.5655,42.4324 40.2322,41.099 40.5,39.5C 41.4778,39.189 42.1445,38.5223 42.5,37.5C 41.3915,35.7859 42.0582,35.1192 44.5,35.5 Z"/></g>
<g><path style="opacity:0.278" fill="#342108" d="M 61.5,38.5 C 59.1635,37.5375 57.8302,38.5375 57.5,41.5C 56.5987,40.7095 55.9321,39.7095 55.5,38.5C 55.5,37.8333 55.5,37.1667 55.5,36.5C 56.2216,36.0825 56.7216,35.4158 57,34.5C 57.3333,35.1667 57.6667,35.8333 58,36.5C 60.0129,34.2492 61.1796,34.9159 61.5,38.5 Z"/></g>
<g><path style="opacity:0.643" fill="#0f0901" d="M 47.5,37.5 C 47.8333,37.5 48.1667,37.5 48.5,37.5C 49.3028,41.2388 50.3028,44.9054 51.5,48.5C 53.0234,50.5857 52.69,52.2524 50.5,53.5C 50.6716,52.5084 50.3382,51.8417 49.5,51.5C 49.5905,48.8478 48.9238,46.5145 47.5,44.5C 47.5,44.1667 47.5,43.8333 47.5,43.5C 47.6716,42.5084 47.3382,41.8417 46.5,41.5C 46.5,41.1667 46.5,40.8333 46.5,40.5C 46.2627,39.209 46.596,38.209 47.5,37.5 Z"/></g>
<g><path style="opacity:1" fill="#8c7043" d="M 61.5,38.5 C 61.5,38.8333 61.5,39.1667 61.5,39.5C 60.5655,40.5676 60.2322,41.901 60.5,43.5C 59.1589,43.8332 57.8256,44.8332 56.5,46.5C 56.5,46.1667 56.5,45.8333 56.5,45.5C 57.404,44.791 57.7373,43.791 57.5,42.5C 57.5,42.1667 57.5,41.8333 57.5,41.5C 57.8302,38.5375 59.1635,37.5375 61.5,38.5 Z"/></g>
<g><path style="opacity:1" fill="#b09b69" d="M 46.5,40.5 C 46.5,40.8333 46.5,41.1667 46.5,41.5C 46.5,41.8333 46.5,42.1667 46.5,42.5C 45.5489,43.9187 45.2155,45.5853 45.5,47.5C 45.6309,48.3764 45.2975,49.0431 44.5,49.5C 43.4822,48.8075 42.4822,48.1408 41.5,47.5C 41.5,46.5 41.5,45.5 41.5,44.5C 41.5,44.1667 41.5,43.8333 41.5,43.5C 41.5,43.1667 41.5,42.8333 41.5,42.5C 42.1667,42.5 42.5,42.1667 42.5,41.5C 43.3738,36.8799 44.7072,36.5466 46.5,40.5 Z"/></g>
<g><path style="opacity:0.784" fill="#171107" d="M 61.5,38.5 C 62.1667,38.8333 62.8333,39.1667 63.5,39.5C 64.8333,41.8333 64.8333,44.1667 63.5,46.5C 63.5,45.8333 63.5,45.1667 63.5,44.5C 63.5,43.8333 63.1667,43.5 62.5,43.5C 62.5,42.8333 62.5,42.1667 62.5,41.5C 62.5,40.8333 62.1667,40.5 61.5,40.5C 61.5,40.1667 61.5,39.8333 61.5,39.5C 61.5,39.1667 61.5,38.8333 61.5,38.5 Z"/></g>
<g><path style="opacity:0.396" fill="#947126" d="M 63.5,39.5 C 63.5,38.8333 63.8333,38.5 64.5,38.5C 65.1667,38.8333 65.8333,39.1667 66.5,39.5C 66.8333,39.5 67.1667,39.5 67.5,39.5C 68.209,40.404 69.209,40.7373 70.5,40.5C 71.1667,40.5 71.8333,40.5 72.5,40.5C 77.8333,40.5 83.1667,40.5 88.5,40.5C 81.3524,41.4916 74.0191,41.825 66.5,41.5C 65.5386,43.2646 65.2053,45.2646 65.5,47.5C 65.1667,48.5 64.5,49.1667 63.5,49.5C 63.0269,48.0937 62.0269,47.427 60.5,47.5C 61.209,46.596 62.209,46.2627 63.5,46.5C 64.8333,44.1667 64.8333,41.8333 63.5,39.5 Z"/></g>
<g><path style="opacity:1" fill="#c1b07d" d="M 35.5,41.5 C 36.3984,42.1577 37.3984,42.8243 38.5,43.5C 38.3764,44.1067 38.0431,44.44 37.5,44.5C 36.609,43.8902 35.609,43.5569 34.5,43.5C 34.3284,42.5084 34.6618,41.8417 35.5,41.5 Z"/></g>
<g><path style="opacity:0.973" fill="#412a09" d="M 36.5,39.5 C 36.8333,39.5 37.1667,39.5 37.5,39.5C 38.3478,40.625 39.3478,40.625 40.5,39.5C 40.2322,41.099 40.5655,42.4324 41.5,43.5C 41.5,43.8333 41.5,44.1667 41.5,44.5C 40.5489,45.9187 40.2155,47.5853 40.5,49.5C 38.953,48.2318 37.953,46.5652 37.5,44.5C 38.0431,44.44 38.3764,44.1067 38.5,43.5C 37.3984,42.8243 36.3984,42.1577 35.5,41.5C 35.8333,40.8333 36.1667,40.1667 36.5,39.5 Z"/></g>
<g><path style="opacity:0.435" fill="#f0eee3" d="M 61.5,39.5 C 61.5,39.8333 61.5,40.1667 61.5,40.5C 62.1667,40.5 62.5,40.8333 62.5,41.5C 62.5,42.1667 62.5,42.8333 62.5,43.5C 62.5,43.8333 62.5,44.1667 62.5,44.5C 62.5654,44.9382 62.3988,45.2716 62,45.5C 61.7216,44.5842 61.2216,43.9175 60.5,43.5C 60.2322,41.901 60.5655,40.5676 61.5,39.5 Z"/></g>
<g><path style="opacity:1" fill="#d6c684" d="M 66.5,42.5 C 73.8333,42.5 81.1667,42.5 88.5,42.5C 88.7678,44.099 88.4345,45.4324 87.5,46.5C 87.7373,45.209 87.404,44.209 86.5,43.5C 80.8333,43.5 75.1667,43.5 69.5,43.5C 68.209,43.7373 67.209,43.404 66.5,42.5 Z"/></g>
<g><path style="opacity:1" fill="#362207" d="M 55.5,38.5 C 55.9321,39.7095 56.5987,40.7095 57.5,41.5C 57.5,41.8333 57.5,42.1667 57.5,42.5C 56.596,43.209 56.2627,44.209 56.5,45.5C 55.5655,46.5676 55.2322,47.901 55.5,49.5C 54.8333,49.5 54.5,49.8333 54.5,50.5C 53.8333,49.5 53.1667,48.5 52.5,47.5C 52.5,46.5 52.5,45.5 52.5,44.5C 53.5,42.5 54.5,40.5 55.5,38.5 Z"/></g>
<g><path style="opacity:1" fill="#d6c555" d="M 66.5,41.5 C 66.5,41.8333 66.5,42.1667 66.5,42.5C 67.209,43.404 68.209,43.7373 69.5,43.5C 69.5,44.1667 69.5,44.8333 69.5,45.5C 75.31,46.4896 81.31,46.8229 87.5,46.5C 87.5,46.8333 87.5,47.1667 87.5,47.5C 80.1667,47.5 72.8333,47.5 65.5,47.5C 65.2053,45.2646 65.5386,43.2646 66.5,41.5 Z"/></g>
<g><path style="opacity:0.994" fill="#f7e76d" d="M 69.5,43.5 C 75.1667,43.5 80.8333,43.5 86.5,43.5C 81.2649,45.45 75.5982,46.1167 69.5,45.5C 69.5,44.8333 69.5,44.1667 69.5,43.5 Z"/></g>
<g><path style="opacity:1" fill="#c9b437" d="M 48.5,37.5 C 49.8333,39.8333 51.1667,42.1667 52.5,44.5C 52.5,45.5 52.5,46.5 52.5,47.5C 52.5,48.1667 52.1667,48.5 51.5,48.5C 50.3028,44.9054 49.3028,41.2388 48.5,37.5 Z"/></g>
<g><path style="opacity:1" fill="#feef6d" d="M 86.5,43.5 C 87.404,44.209 87.7373,45.209 87.5,46.5C 81.31,46.8229 75.31,46.4896 69.5,45.5C 75.5982,46.1167 81.2649,45.45 86.5,43.5 Z"/></g>
<g><path style="opacity:1" fill="#7b6232" d="M 88.5,40.5 C 89.4959,40.4142 90.3292,40.7476 91,41.5C 91.4955,43.4727 91.6621,45.4727 91.5,47.5C 90.1667,47.5 88.8333,47.5 87.5,47.5C 87.5,47.1667 87.5,46.8333 87.5,46.5C 88.4345,45.4324 88.7678,44.099 88.5,42.5C 81.1667,42.5 73.8333,42.5 66.5,42.5C 66.5,42.1667 66.5,41.8333 66.5,41.5C 74.0191,41.825 81.3524,41.4916 88.5,40.5 Z"/></g>
<g><path style="opacity:1" fill="#b09f6e" d="M 60.5,43.5 C 61.2216,43.9175 61.7216,44.5842 62,45.5C 62.3988,45.2716 62.5654,44.9382 62.5,44.5C 62.8333,44.5 63.1667,44.5 63.5,44.5C 63.5,45.1667 63.5,45.8333 63.5,46.5C 62.209,46.2627 61.209,46.596 60.5,47.5C 59.9744,49.2303 58.9744,50.5637 57.5,51.5C 57.5394,50.4168 57.8728,49.4168 58.5,48.5C 58.0302,47.537 57.3635,47.537 56.5,48.5C 56.5,47.8333 56.5,47.1667 56.5,46.5C 57.8256,44.8332 59.1589,43.8332 60.5,43.5 Z"/></g>
<g><path style="opacity:0.814" fill="#f4f0e7" d="M 46.5,42.5 C 46.5,43.1667 46.8333,43.5 47.5,43.5C 47.5,43.8333 47.5,44.1667 47.5,44.5C 47.4095,47.1522 48.0762,49.4855 49.5,51.5C 49.2627,52.791 49.596,53.791 50.5,54.5C 50.5,55.1667 50.5,55.8333 50.5,56.5C 49.5,55.8333 48.5,55.1667 47.5,54.5C 47.2785,51.9327 46.6118,49.5994 45.5,47.5C 45.2155,45.5853 45.5489,43.9187 46.5,42.5 Z"/></g>
<g><path style="opacity:0.511" fill="#2b1a03" d="M 34.5,43.5 C 35.609,43.5569 36.609,43.8902 37.5,44.5C 37.953,46.5652 38.953,48.2318 40.5,49.5C 40.5,50.1667 40.8333,50.5 41.5,50.5C 41.4827,52.0281 40.816,52.5281 39.5,52C 37.1365,49.4944 35.4698,46.6611 34.5,43.5 Z"/></g>
<g><path style="opacity:0.867" fill="#281903" d="M 65.5,47.5 C 72.8333,47.5 80.1667,47.5 87.5,47.5C 88.8333,47.5 90.1667,47.5 91.5,47.5C 91.1961,48.1499 90.8627,48.8165 90.5,49.5C 82.6083,50.8138 74.7749,50.8138 67,49.5C 66.2917,50.3805 65.4584,51.0472 64.5,51.5C 64.1667,51.5 63.8333,51.5 63.5,51.5C 63.5,50.8333 63.5,50.1667 63.5,49.5C 64.5,49.1667 65.1667,48.5 65.5,47.5 Z"/></g>
<g><path style="opacity:0.998" fill="#2e1c04" d="M 52.5,47.5 C 53.1667,48.5 53.8333,49.5 54.5,50.5C 54.5,51.1667 54.5,51.8333 54.5,52.5C 53.596,53.209 53.2627,54.209 53.5,55.5C 52.391,55.4431 51.391,55.1098 50.5,54.5C 50.5,54.1667 50.5,53.8333 50.5,53.5C 52.69,52.2524 53.0234,50.5857 51.5,48.5C 52.1667,48.5 52.5,48.1667 52.5,47.5 Z"/></g>
<g><path style="opacity:0.42" fill="#e5ded1" d="M 57.5,51.5 C 57.2624,53.4044 56.2624,54.7377 54.5,55.5C 54.5,54.5 54.5,53.5 54.5,52.5C 55.404,51.791 55.7373,50.791 55.5,49.5C 56.1667,49.5 56.5,49.1667 56.5,48.5C 57.3635,47.537 58.0302,47.537 58.5,48.5C 57.8728,49.4168 57.5394,50.4168 57.5,51.5 Z"/></g>
<g><path style="opacity:1" fill="#2d2313" d="M 41.5,47.5 C 42.4822,48.1408 43.4822,48.8075 44.5,49.5C 45.2975,49.0431 45.6309,48.3764 45.5,47.5C 46.6118,49.5994 47.2785,51.9327 47.5,54.5C 45.6776,54.1692 44.0109,53.5025 42.5,52.5C 42.6716,51.5084 42.3382,50.8417 41.5,50.5C 41.5,49.5 41.5,48.5 41.5,47.5 Z"/></g>
<g><path style="opacity:1" fill="#271909" d="M 60.5,47.5 C 62.0269,47.427 63.0269,48.0937 63.5,49.5C 62.8333,50.1667 62.1667,50.8333 61.5,51.5C 59.9719,51.5173 59.4719,52.184 60,53.5C 61.2708,54.8825 62.7708,55.8825 64.5,56.5C 64.631,57.2389 64.4643,57.9056 64,58.5C 62.5064,57.2528 61.0064,57.2528 59.5,58.5C 59.9569,59.2975 60.6236,59.6309 61.5,59.5C 61.8333,59.5 62.1667,59.5 62.5,59.5C 62.5,60.1667 62.8333,60.5 63.5,60.5C 63.5,60.8333 63.5,61.1667 63.5,61.5C 62.0413,61.5674 60.7079,61.2341 59.5,60.5C 58.6851,59.5707 57.8518,58.5707 57,57.5C 56.6012,57.7284 56.4346,58.0618 56.5,58.5C 55.209,58.2627 54.209,58.596 53.5,59.5C 52.8333,59.5 52.1667,59.5 51.5,59.5C 51.8333,58.8333 52.1667,58.1667 52.5,57.5C 53.3382,57.1583 53.6716,56.4916 53.5,55.5C 53.8333,55.5 54.1667,55.5 54.5,55.5C 56.2624,54.7377 57.2624,53.4044 57.5,51.5C 58.9744,50.5637 59.9744,49.2303 60.5,47.5 Z"/></g>
<g><path style="opacity:1" fill="#826835" d="M 61.5,51.5 C 62.1667,52.8333 62.8333,52.8333 63.5,51.5C 63.8333,51.5 64.1667,51.5 64.5,51.5C 66.3691,52.1646 68.3691,52.8313 70.5,53.5C 70.3764,54.1067 70.0431,54.44 69.5,54.5C 67.302,54.1201 65.6354,54.7868 64.5,56.5C 62.7708,55.8825 61.2708,54.8825 60,53.5C 59.4719,52.184 59.9719,51.5173 61.5,51.5 Z"/></g>
<g><path style="opacity:0.52" fill="#533c1f" d="M 42.5,52.5 C 44.0109,53.5025 45.6776,54.1692 47.5,54.5C 48.5,55.1667 49.5,55.8333 50.5,56.5C 51.1667,56.8333 51.8333,57.1667 52.5,57.5C 52.1667,58.1667 51.8333,58.8333 51.5,59.5C 51.1667,59.5 50.8333,59.5 50.5,59.5C 50.1583,58.6618 49.4916,58.3284 48.5,58.5C 47.8333,58.1667 47.1667,57.8333 46.5,57.5C 45.1149,59.8835 43.1149,61.5501 40.5,62.5C 40.8333,61.8333 41.1667,61.1667 41.5,60.5C 42.1667,60.5 42.5,60.1667 42.5,59.5C 43.1667,59.5 43.5,59.1667 43.5,58.5C 43.7678,56.901 43.4345,55.5676 42.5,54.5C 42.5,53.8333 42.5,53.1667 42.5,52.5 Z"/></g>
<g><path style="opacity:0.85" fill="#332009" d="M 42.5,54.5 C 43.4345,55.5676 43.7678,56.901 43.5,58.5C 42.8333,58.5 42.5,58.8333 42.5,59.5C 41.8333,59.5 41.5,59.8333 41.5,60.5C 40.8333,60.5 40.1667,60.5 39.5,60.5C 39.8333,59.1667 40.1667,57.8333 40.5,56.5C 40.8333,55.5 41.5,54.8333 42.5,54.5 Z"/></g>
<g><path style="opacity:0.937" fill="#4e3b1f" d="M 40.5,56.5 C 40.1667,57.8333 39.8333,59.1667 39.5,60.5C 37.9652,61.7879 36.2985,61.7879 34.5,60.5C 36.1764,58.6631 38.1764,57.3298 40.5,56.5 Z"/></g>
<g><path style="opacity:0.255" fill="#a69473" d="M 56.5,58.5 C 56.5,59.5 56.5,60.5 56.5,61.5C 53.8501,62.4571 53.1834,64.1238 54.5,66.5C 54.5,67.1667 54.1667,67.5 53.5,67.5C 53.6309,66.6236 53.2975,65.9569 52.5,65.5C 51.8182,66.2427 51.1515,66.9094 50.5,67.5C 50.2627,66.209 50.596,65.209 51.5,64.5C 52.5375,63.0697 53.2041,61.403 53.5,59.5C 54.209,58.596 55.209,58.2627 56.5,58.5 Z"/></g>
<g><path style="opacity:0.571" fill="#3b260e" d="M 69.5,54.5 C 68.8592,55.4822 68.1925,56.4822 67.5,57.5C 67.6236,58.1067 67.9569,58.44 68.5,58.5C 68.4431,59.609 68.1098,60.609 67.5,61.5C 66.1667,61.1667 64.8333,60.8333 63.5,60.5C 62.8333,60.5 62.5,60.1667 62.5,59.5C 62.1667,58.1667 61.8333,58.1667 61.5,59.5C 60.6236,59.6309 59.9569,59.2975 59.5,58.5C 61.0064,57.2528 62.5064,57.2528 64,58.5C 64.4643,57.9056 64.631,57.2389 64.5,56.5C 65.6354,54.7868 67.302,54.1201 69.5,54.5 Z"/></g>
<g><path style="opacity:1" fill="#684d2d" d="M 68.5,58.5 C 69.2216,58.9175 69.7216,59.5842 70,60.5C 70.3826,59.944 70.8826,59.6107 71.5,59.5C 73.1667,60.1667 74.8333,60.8333 76.5,61.5C 74.2646,61.2053 72.2646,61.5386 70.5,62.5C 69.8333,62.8333 69.1667,63.1667 68.5,63.5C 68.5,62.8333 68.1667,62.5 67.5,62.5C 67.5,62.1667 67.5,61.8333 67.5,61.5C 68.1098,60.609 68.4431,59.609 68.5,58.5 Z"/></g>
<g><path style="opacity:1" fill="#745323" d="M 71.5,59.5 C 79.5,59.5 87.5,59.5 95.5,59.5C 95.5,61.8333 95.5,64.1667 95.5,66.5C 94.5,66.5 93.5,66.5 92.5,66.5C 92.5,66.1667 92.5,65.8333 92.5,65.5C 92.5,64.1667 92.5,62.8333 92.5,61.5C 87.1667,61.5 81.8333,61.5 76.5,61.5C 74.8333,60.8333 73.1667,60.1667 71.5,59.5 Z"/></g>
<g><path style="opacity:0.741" fill="#2d1c06" d="M 46.5,57.5 C 46.4631,62.5545 44.1298,64.5545 39.5,63.5C 39.6236,62.8933 39.9569,62.56 40.5,62.5C 43.1149,61.5501 45.1149,59.8835 46.5,57.5 Z"/></g>
<g><path style="opacity:0.039" fill="#402b11" d="M 59.5,60.5 C 60.7079,61.2341 62.0413,61.5674 63.5,61.5C 64.5,62.1667 65.5,62.8333 66.5,63.5C 66.1667,64.5 65.5,65.1667 64.5,65.5C 63.3998,64.4415 62.0664,63.6082 60.5,63C 59.7476,62.3292 59.4142,61.4959 59.5,60.5 Z"/></g>
<g><path style="opacity:1" fill="#cca638" d="M 70.5,62.5 C 77.5316,62.1697 84.5316,62.503 91.5,63.5C 84.0109,64.1667 76.6775,64.8334 69.5,65.5C 68.8333,65.5 68.5,65.1667 68.5,64.5C 68.5,64.1667 68.5,63.8333 68.5,63.5C 69.1667,63.1667 69.8333,62.8333 70.5,62.5 Z"/></g>
<g><path style="opacity:0.682" fill="#897049" d="M 48.5,58.5 C 49.4916,58.3284 50.1583,58.6618 50.5,59.5C 51.038,61.1172 51.3713,62.7839 51.5,64.5C 50.596,65.209 50.2627,66.209 50.5,67.5C 49.6851,68.4293 48.8518,69.4293 48,70.5C 48.2903,67.5865 48.4569,64.5865 48.5,61.5C 48.5,60.5 48.5,59.5 48.5,58.5 Z"/></g>
<g><path style="opacity:1" fill="#c39f45" d="M 70.5,62.5 C 72.2646,61.5386 74.2646,61.2053 76.5,61.5C 81.8333,61.5 87.1667,61.5 92.5,61.5C 92.5,62.8333 92.5,64.1667 92.5,65.5C 84.8333,65.5 77.1667,65.5 69.5,65.5C 76.6775,64.8334 84.0109,64.1667 91.5,63.5C 84.5316,62.503 77.5316,62.1697 70.5,62.5 Z"/></g>
<g><path style="opacity:0.322" fill="#241d12" d="M 56.5,61.5 C 57.6005,62.6049 58.2671,63.9382 58.5,65.5C 57.8826,65.3893 57.3826,65.056 57,64.5C 56.5831,65.756 55.7498,66.4226 54.5,66.5C 53.1834,64.1238 53.8501,62.4571 56.5,61.5 Z"/></g>
<g><path style="opacity:1" fill="#775920" d="M 68.5,64.5 C 68.5,65.1667 68.8333,65.5 69.5,65.5C 77.1667,65.5 84.8333,65.5 92.5,65.5C 92.5,65.8333 92.5,66.1667 92.5,66.5C 83.8269,66.6664 75.1603,66.4998 66.5,66C 67.0442,65.2828 67.7109,64.7828 68.5,64.5 Z"/></g>
<g><path style="opacity:1" fill="#24180a" d="M 58.5,65.5 C 59.1667,65.8333 59.8333,66.1667 60.5,66.5C 60.5,66.8333 60.5,67.1667 60.5,67.5C 59.3121,68.6843 58.1455,68.6843 57,67.5C 56.3083,68.4368 56.475,69.1034 57.5,69.5C 57.5,70.1667 57.8333,70.5 58.5,70.5C 58.5,70.8333 58.5,71.1667 58.5,71.5C 56.7085,71.634 55.0418,71.3007 53.5,70.5C 52.8843,69.2022 52.8843,68.2022 53.5,67.5C 54.1667,67.5 54.5,67.1667 54.5,66.5C 55.7498,66.4226 56.5831,65.756 57,64.5C 57.3826,65.056 57.8826,65.3893 58.5,65.5 Z"/></g>
<g><path style="opacity:0.616" fill="#3b270f" d="M 48.5,61.5 C 48.4569,64.5865 48.2903,67.5865 48,70.5C 48.8518,69.4293 49.6851,68.4293 50.5,67.5C 50.5,68.5 50.5,69.5 50.5,70.5C 51.5,71.1667 52.5,71.8333 53.5,72.5C 53.8333,72.5 54.1667,72.5 54.5,72.5C 53.1873,78.9652 51.354,78.9652 49,72.5C 47.308,74.2446 45.4747,74.5779 43.5,73.5C 43.7093,72.914 44.0426,72.414 44.5,72C 42.4233,71.8078 40.4233,71.3078 38.5,70.5C 42.502,68.1607 45.8353,65.1607 48.5,61.5 Z"/></g>
<g><path style="opacity:0.918" fill="#331e0b" d="M 67.5,62.5 C 68.1667,62.5 68.5,62.8333 68.5,63.5C 68.5,63.8333 68.5,64.1667 68.5,64.5C 67.7109,64.7828 67.0442,65.2828 66.5,66C 75.1603,66.4998 83.8269,66.6664 92.5,66.5C 93.5,66.5 94.5,66.5 95.5,66.5C 95.5858,67.4959 95.2524,68.3292 94.5,69C 84.658,69.17 74.9913,69.67 65.5,70.5C 63.0672,70.7271 61.4006,69.7271 60.5,67.5C 60.5,67.1667 60.5,66.8333 60.5,66.5C 61.9621,67.4709 63.2954,67.1376 64.5,65.5C 65.5,65.1667 66.1667,64.5 66.5,63.5C 66.5,62.8333 66.8333,62.5 67.5,62.5 Z"/></g>
<g><path style="opacity:0.696" fill="#331e03" d="M 60.5,67.5 C 61.4006,69.7271 63.0672,70.7271 65.5,70.5C 64.3409,71.5135 62.3409,71.8468 59.5,71.5C 59.5,70.8333 59.1667,70.5 58.5,70.5C 57.8333,70.5 57.5,70.1667 57.5,69.5C 56.475,69.1034 56.3083,68.4368 57,67.5C 58.1455,68.6843 59.3121,68.6843 60.5,67.5 Z"/></g>
<g><path style="opacity:1" fill="#998560" d="M 53.5,67.5 C 52.8843,68.2022 52.8843,69.2022 53.5,70.5C 53.5,71.1667 53.5,71.8333 53.5,72.5C 52.5,71.8333 51.5,71.1667 50.5,70.5C 50.5,69.5 50.5,68.5 50.5,67.5C 51.1515,66.9094 51.8182,66.2427 52.5,65.5C 53.2975,65.9569 53.6309,66.6236 53.5,67.5 Z"/></g>
<g><path style="opacity:0.729" fill="#4c3516" d="M 53.5,70.5 C 55.0418,71.3007 56.7085,71.634 58.5,71.5C 58.8333,71.5 59.1667,71.5 59.5,71.5C 59.9528,72.4584 60.6195,73.2917 61.5,74C 58.9348,74.6089 56.6015,74.1089 54.5,72.5C 54.1667,72.5 53.8333,72.5 53.5,72.5C 53.5,71.8333 53.5,71.1667 53.5,70.5 Z"/></g>
<g><path style="opacity:0.159" fill="#555454" d="M 23.5,84.5 C 19.1074,84.4568 18.7741,84.9568 22.5,86C 21.552,86.4828 20.552,86.6495 19.5,86.5C 19.5,87.5 19.5,88.5 19.5,89.5C 18.8333,89.5 18.1667,89.5 17.5,89.5C 17.0825,88.7784 16.4158,88.2784 15.5,88C 16.9733,87.2904 17.6399,86.1238 17.5,84.5C 16.209,84.2627 15.209,84.596 14.5,85.5C 13.9569,85.44 13.6236,85.1067 13.5,84.5C 16.9798,83.1944 20.3132,83.1944 23.5,84.5 Z"/></g>
<g><path style="opacity:0.053" fill="#565655" d="M 33.5,84.5 C 32.5489,85.9187 32.2155,87.5853 32.5,89.5C 31.1667,89.5 29.8333,89.5 28.5,89.5C 28.5,88.5 28.5,87.5 28.5,86.5C 29.8333,86.1667 29.8333,85.8333 28.5,85.5C 27.7494,84.4265 26.7494,84.2599 25.5,85C 25.3474,86.2087 25.0141,87.3754 24.5,88.5C 24.5,87.8333 24.1667,87.5 23.5,87.5C 23.5,86.5 23.5,85.5 23.5,84.5C 26.9359,83.2185 30.2693,83.2185 33.5,84.5 Z"/></g>
<g><path style="opacity:0.149" fill="#484847" d="M 59.5,83.5 C 59.1788,85.0481 58.1788,85.7148 56.5,85.5C 55.1667,85.8333 55.1667,86.1667 56.5,86.5C 59.5983,86.4125 59.9316,86.9125 57.5,88C 58.4158,88.2784 59.0825,88.7784 59.5,89.5C 57.0504,89.702 54.717,89.3686 52.5,88.5C 53.1408,87.5178 53.8075,86.5178 54.5,85.5C 53.2135,85.5236 51.8802,85.1903 50.5,84.5C 53.4299,83.701 56.4299,83.3677 59.5,83.5 Z"/></g>
<g><path style="opacity:0.531" fill="#494949" d="M 38.5,84.5 C 38.5,86.1667 38.5,87.8333 38.5,89.5C 36.5,89.5 34.5,89.5 32.5,89.5C 32.2155,87.5853 32.5489,85.9187 33.5,84.5C 34.9983,84.1658 36.665,84.1658 38.5,84.5 Z"/></g>
<g><path style="opacity:0.102" fill="#5a5959" d="M 59.5,83.5 C 60.1667,83.8333 60.8333,84.1667 61.5,84.5C 61.5,86.1667 61.5,87.8333 61.5,89.5C 60.8333,89.5 60.1667,89.5 59.5,89.5C 59.0825,88.7784 58.4158,88.2784 57.5,88C 59.9316,86.9125 59.5983,86.4125 56.5,86.5C 56.5,86.1667 56.5,85.8333 56.5,85.5C 58.1788,85.7148 59.1788,85.0481 59.5,83.5 Z"/></g>
<g><path style="opacity:0.651" fill="#3c3c3b" d="M 86.5,84.5 C 86.5,86.1667 86.5,87.8333 86.5,89.5C 85.1667,89.5 83.8333,89.5 82.5,89.5C 83.2625,88.7321 84.2625,88.2321 85.5,88C 84.944,87.6174 84.6107,87.1174 84.5,86.5C 84.1667,85.1667 83.8333,85.1667 83.5,86.5C 82.6618,86.1583 82.3284,85.4916 82.5,84.5C 83.8333,83.1667 85.1667,83.1667 86.5,84.5 Z"/></g>
<g><path style="opacity:0.559" fill="#474746" d="M 88.5,83.5 C 90.451,83.2267 91.951,83.8934 93,85.5C 94.2697,83.4215 95.7697,83.0882 97.5,84.5C 94.4017,84.4125 94.0684,84.9125 96.5,86C 95.2625,86.2321 94.2625,86.7321 93.5,87.5C 92.8485,88.0906 92.1818,88.7573 91.5,89.5C 90.8933,89.3764 90.56,89.0431 90.5,88.5C 89.032,87.2209 88.3653,85.5542 88.5,83.5 Z"/></g>
<g><path style="opacity:0.561" fill="#414140" d="M 67.5,86.5 C 68.9063,86.9731 69.573,87.9731 69.5,89.5C 66.8333,89.5 64.1667,89.5 61.5,89.5C 61.5,87.8333 61.5,86.1667 61.5,84.5C 62.0968,83.8614 62.9302,83.528 64,83.5C 65.5978,84.4077 66.7645,85.4077 67.5,86.5 Z"/></g>
<g><path style="opacity:0.486" fill="#474745" d="M 82.5,84.5 C 82.3284,85.4916 82.6618,86.1583 83.5,86.5C 83.8333,86.5 84.1667,86.5 84.5,86.5C 84.6107,87.1174 84.944,87.6174 85.5,88C 84.2625,88.2321 83.2625,88.7321 82.5,89.5C 80.4727,89.6621 78.4727,89.4955 76.5,89C 75.6028,84.0818 77.6028,82.5818 82.5,84.5 Z M 79.5,85.5 C 80.3764,85.3691 81.0431,85.7025 81.5,86.5C 79.1916,87.8734 78.5249,87.5401 79.5,85.5 Z"/></g>
<g><path style="opacity:0.827" fill="#3f3f3e" d="M 17.5,89.5 C 16.1667,89.5 14.8333,89.5 13.5,89.5C 13.4326,88.0413 13.7659,86.7079 14.5,85.5C 15.209,84.596 16.209,84.2627 17.5,84.5C 17.6399,86.1238 16.9733,87.2904 15.5,88C 16.4158,88.2784 17.0825,88.7784 17.5,89.5 Z"/></g>
<g><path style="opacity:0.766" fill="#373838" d="M 23.5,84.5 C 23.5,85.5 23.5,86.5 23.5,87.5C 22.3951,88.6005 21.0618,89.2671 19.5,89.5C 19.5,88.5 19.5,87.5 19.5,86.5C 20.552,86.6495 21.552,86.4828 22.5,86C 18.7741,84.9568 19.1074,84.4568 23.5,84.5 Z"/></g>
<g><path style="opacity:0.541" fill="#454545" d="M 38.5,89.5 C 38.5,87.8333 38.5,86.1667 38.5,84.5C 40.0294,84.319 41.6961,83.9857 43.5,83.5C 44.4656,85.396 44.7989,87.396 44.5,89.5C 42.2967,89.0651 40.2967,89.0651 38.5,89.5 Z"/></g>
<g><path style="opacity:0.518" fill="#434342" d="M 50.5,84.5 C 51.8802,85.1903 53.2135,85.5236 54.5,85.5C 53.8075,86.5178 53.1408,87.5178 52.5,88.5C 51.4324,89.4345 50.099,89.7678 48.5,89.5C 48.2011,87.396 48.5344,85.396 49.5,83.5C 50.1067,83.6236 50.44,83.9569 50.5,84.5 Z"/></g>
<g><path style="opacity:0.612" fill="#4f4f4e" d="M 69.5,89.5 C 69.573,87.9731 68.9063,86.9731 67.5,86.5C 67.6043,84.0272 68.6043,83.3606 70.5,84.5C 71.1667,85.8333 71.8333,87.1667 72.5,88.5C 71.675,89.3857 70.675,89.719 69.5,89.5 Z"/></g>
<g><path style="opacity:0.786" fill="#3a3a39" d="M 97.5,84.5 C 98.7759,85.3864 98.7759,86.3864 97.5,87.5C 96.5,88.1667 95.5,88.8333 94.5,89.5C 93.7025,89.0431 93.3691,88.3764 93.5,87.5C 94.2625,86.7321 95.2625,86.2321 96.5,86C 94.0684,84.9125 94.4017,84.4125 97.5,84.5 Z"/></g>
<g><path style="opacity:0.886" fill="#393839" d="M 28.5,85.5 C 28.5,85.8333 28.5,86.1667 28.5,86.5C 28.5,87.5 28.5,88.5 28.5,89.5C 26.901,89.7678 25.5676,89.4345 24.5,88.5C 25.0141,87.3754 25.3474,86.2087 25.5,85C 26.7494,84.2599 27.7494,84.4265 28.5,85.5 Z"/></g>
<g><path style="opacity:0.329" fill="#5d5c5c" d="M 88.5,83.5 C 88.3653,85.5542 89.032,87.2209 90.5,88.5C 89.2921,89.2341 87.9587,89.5674 86.5,89.5C 86.5,87.8333 86.5,86.1667 86.5,84.5C 87.1667,84.1667 87.8333,83.8333 88.5,83.5 Z"/></g>
</svg>
